<svg width="443" height="535" viewBox="0 0 443 535" fill="none" xmlns="http://www.w3.org/2000/svg">
<g clip-path="url(#clip0_10_1316)">
<path d="M276.942 485.732C278.933 484.466 278.645 481.569 276.677 481.212C275.627 481.022 274.495 482.036 274.233 483.479C273.758 486.103 275.058 487.152 276.942 485.732Z" fill="#383838"/>
<path d="M376.091 462.78C376.783 461.956 377.104 460.931 376.782 460.466C375.815 459.071 374.194 460.539 374.517 462.494C374.78 464.032 375.043 464.08 376.091 462.78Z" fill="#383838"/>
<path d="M109.148 313.987C109.66 313.402 109.517 312.699 108.861 312.58C108.074 312.437 107.299 312.974 107.18 313.63C107.037 314.418 107.204 314.99 107.467 315.037C107.86 315.109 108.611 314.703 109.148 313.987Z" fill="#383838"/>
<path d="M365.651 345.436C365.77 344.78 365.162 344.399 364.434 344.674C363.576 344.925 362.932 345.486 362.861 345.879C362.813 346.142 363.29 346.499 364.078 346.642C364.734 346.761 365.508 346.224 365.651 345.436Z" fill="#383838"/>
<path d="M246.976 318.371C249.455 316.652 249.847 313.742 247.748 313.362C245.255 312.91 242.549 315.13 242.956 317.372C243.339 319.745 244.496 320.09 246.976 318.371Z" fill="#383838"/>
<path d="M417.17 345.289C417.765 342.009 413.364 341.618 412.089 344.91C411.542 346.437 412.079 347.212 413.916 347.544C415.884 347.901 416.813 347.257 417.17 345.289Z" fill="#383838"/>
<path d="M431.299 296.493C434.053 295.502 433.061 291.257 430.271 291.699C428.029 292.106 426.957 295.028 428.449 296.518C428.926 296.876 430.262 296.982 431.299 296.493Z" fill="#383838"/>
<path d="M241.434 260.725C241.814 258.626 241.277 257.851 238.844 257.817C237.223 257.794 235.72 258.606 235.53 259.655C235.34 260.705 236.462 261.992 237.988 262.54C240.279 263.362 241.053 262.825 241.434 260.725Z" fill="#383838"/>
<path d="M337.781 237.536C337.9 236.88 337.363 236.105 336.707 235.987C335.919 235.844 335.276 236.405 335.157 237.061C335.014 237.848 335.444 238.468 336.231 238.61C336.887 238.729 337.638 238.323 337.781 237.536Z" fill="#383838"/>
<path d="M180.586 190.481C181.552 190.385 182.672 188.691 182.981 186.985C183.504 184.099 183.051 183.61 179.831 183.433C177.028 183.196 176.098 183.841 175.623 186.465C175.052 189.613 177.045 191.33 180.586 190.481Z" fill="#383838"/>
<path d="M121.948 170.096C132.333 165.881 134.713 155.743 126.683 149.951C120.694 145.614 115.351 145.187 109.999 148.553C99.9366 154.725 101.172 166.602 112.169 170.221C116.01 171.459 118.443 171.494 121.948 170.096Z" fill="#383838"/>
<path d="M227.226 188.094C227.202 186.734 226.342 185.494 225.293 185.304C222.406 184.781 222.241 188.681 224.901 189.705C226.667 190.432 227.287 190.002 227.226 188.094Z" fill="#383838"/>
<path d="M438.006 219.115C438.519 218.531 438.375 217.827 437.719 217.708C436.932 217.566 436.157 218.103 436.038 218.759C435.895 219.546 436.063 220.118 436.325 220.166C436.719 220.237 437.47 219.831 438.006 219.115Z" fill="#383838"/>
<path d="M295.957 193.911C296.577 193.482 297.256 191.979 297.494 190.667C297.827 188.83 297.158 188.031 294.857 188.021C292.972 187.95 291.733 188.809 291.423 190.515C290.948 193.139 293.942 195.308 295.957 193.911Z" fill="#383838"/>
<path d="M333.164 191.983C333.677 191.398 333.533 190.694 332.877 190.576C332.09 190.433 331.315 190.97 331.196 191.626C331.053 192.413 331.221 192.985 331.483 193.033C331.877 193.104 332.628 192.698 333.164 191.983Z" fill="#383838"/>
<path d="M395.278 200.666C396.482 199.258 394.274 197.232 392.379 197.972C390.769 198.629 391.259 201.157 393.096 201.49C393.752 201.609 394.634 201.227 395.278 200.666Z" fill="#383838"/>
<path d="M335.328 158.363C337.044 156.37 334.478 153.331 332.309 154.834C330.449 156.124 330.999 159.069 332.967 159.426C333.623 159.544 334.661 159.055 335.328 158.363Z" fill="#383838"/>
<path d="M455.971 162.613C457.402 162.195 458.76 160.68 459.022 159.237C459.26 157.925 461.488 155.347 464.099 153.653C469.857 149.547 470.773 145.241 467.263 139.185C465.21 135.561 463.54 134.309 459.998 133.667C451.207 132.074 441.649 142.944 446.78 149.023C447.902 150.31 447.987 152.087 447.081 154.091C444.568 159.734 449.997 164.918 455.971 162.613Z" fill="#383838"/>
<path d="M303.973 132.49C304.092 131.834 303.686 131.082 303.03 130.964C302.243 130.821 301.206 131.31 300.693 131.895C300.157 132.611 300.587 133.231 301.636 133.421C302.817 133.635 303.83 133.277 303.973 132.49Z" fill="#383838"/>
<path d="M232.881 106.054C233 105.398 232.463 104.623 231.807 104.504C231.02 104.361 230.376 104.922 230.257 105.578C230.115 106.365 230.544 106.985 231.331 107.128C231.987 107.247 232.738 106.841 232.881 106.054Z" fill="#383838"/>
<path d="M384.001 100.651C383.641 98.1472 380.827 97.2304 380.422 99.4608C380.208 100.642 380.96 101.726 382.141 101.94C383.322 102.154 384.097 101.617 384.001 100.651Z" fill="#383838"/>
<path d="M149.248 44.146C152.466 41.3417 151.486 37.7765 147.157 36.9918C144.008 36.4211 142.971 36.9106 142.257 39.3558C140.59 44.0673 145.41 47.38 149.248 44.146Z" fill="#383838"/>
<path d="M412.334 75.1624C415.815 72.4056 416.872 65.8221 414.462 62.675C411.944 59.373 403.702 57.7437 400.579 60.0233C399.208 60.8588 397.814 63.3163 397.433 65.4154C396.102 72.7624 406.66 79.5542 412.334 75.1624Z" fill="#383838"/>
<path d="M398.088 -0.999183C399.805 -2.99172 397.239 -6.03136 395.069 -4.52752C393.21 -3.23852 393.76 -0.293175 395.728 0.0635084C396.384 0.182403 397.421 -0.307124 398.088 -0.999183Z" fill="#383838"/>
</g>
<defs>
<clipPath id="clip0_10_1316">
<rect width="504.368" height="451.698" fill="white" transform="translate(496.282 534.407) rotate(-169.727)"/>
</clipPath>
</defs>
</svg>

