<svg width="402" height="594" viewBox="0 0 402 594" fill="none" xmlns="http://www.w3.org/2000/svg">
<g clip-path="url(#clip0_10_62)">
<path d="M71.5818 372.427C73.5311 373.755 76.079 372.345 75.6286 370.396C75.3883 369.357 74.0089 368.718 72.58 369.048C69.9818 369.649 69.5327 371.258 71.5818 372.427Z" fill="#383838"/>
<path d="M131.864 454.423C132.894 454.733 133.963 454.622 134.263 454.142C135.162 452.703 133.172 451.794 131.504 452.864C130.195 453.714 130.255 453.974 131.864 454.423Z" fill="#383838"/>
<path d="M187.291 565.733C190.529 567.311 193.526 564.292 193.025 559.755C192.744 557.357 191.954 556.307 189.726 556.138C184.009 555.681 182.033 563.117 187.291 565.733Z" fill="#383838"/>
<path d="M235.129 589.161C237.208 590.46 242.095 588.509 242.394 586.25C242.902 583.122 239.323 580.665 236.196 581.935C233.558 582.956 232.89 587.763 235.129 589.161Z" fill="#383838"/>
<path d="M162.993 150.402C163.733 150.641 164.322 150.231 164.172 149.582C163.992 148.802 163.192 148.303 162.543 148.453C161.763 148.633 161.304 149.013 161.364 149.273C161.454 149.663 162.124 150.192 162.993 150.402Z" fill="#383838"/>
<path d="M235.519 398.44C236.169 398.29 236.278 397.58 235.738 397.021C235.168 396.332 234.399 395.962 234.009 396.052C233.749 396.112 233.61 396.692 233.79 397.471C233.94 398.121 234.74 398.62 235.519 398.44Z" fill="#383838"/>
<path d="M213.459 278.733C216.018 280.331 218.846 279.541 218.365 277.462C217.795 274.994 214.686 273.386 212.788 274.646C210.759 275.936 210.9 277.135 213.459 278.733Z" fill="#383838"/>
<path d="M256.024 445.703C259.271 444.952 257.891 440.755 254.363 440.887C252.744 440.987 252.244 441.787 252.665 443.606C253.115 445.554 254.075 446.153 256.024 445.703Z" fill="#383838"/>
<path d="M306.43 439.388C308.429 441.526 311.936 438.937 310.426 436.549C309.166 434.65 306.058 434.821 305.279 436.781C305.14 437.36 305.57 438.629 306.43 439.388Z" fill="#383838"/>
<path d="M264.217 250.852C266.295 250.371 266.795 249.572 265.864 247.323C265.244 245.824 263.905 244.766 262.865 245.006C261.826 245.246 261.087 246.785 261.188 248.404C261.339 250.833 262.138 251.332 264.217 250.852Z" fill="#383838"/>
<path d="M323.609 330.18C324.258 330.03 324.758 329.231 324.608 328.581C324.427 327.802 323.658 327.432 323.008 327.582C322.229 327.762 321.829 328.402 322.01 329.182C322.16 329.831 322.829 330.361 323.609 330.18Z" fill="#383838"/>
<path d="M398.725 583.505C399.444 583.065 399.784 582.165 399.634 581.515C399.483 580.866 398.784 580.207 397.944 580.127C397.105 580.047 396.635 580.977 396.906 582.146C397.176 583.315 398.006 583.945 398.725 583.505Z" fill="#383838"/>
<path d="M304.681 167.189C305.151 168.038 307.15 168.398 308.839 168.007C311.697 167.346 311.966 166.737 310.856 163.709C309.965 161.041 309.006 160.442 306.407 161.042C303.29 161.763 302.501 164.272 304.681 167.189Z" fill="#383838"/>
<path d="M300.221 105.27C308.199 113.142 318.452 111.319 320.597 101.654C322.213 94.4382 320.492 89.3621 315.284 85.7762C305.638 78.974 295.217 84.8042 296.24 96.3366C296.621 100.354 297.552 102.602 300.221 105.27Z" fill="#383838"/>
<path d="M325.313 209.085C326.552 208.525 327.351 207.246 327.111 206.207C326.451 203.349 322.803 204.739 322.914 207.587C322.945 209.496 323.585 209.896 325.313 209.085Z" fill="#383838"/>
<path d="M380.155 414.957C380.894 415.196 381.484 414.786 381.334 414.137C381.153 413.357 380.354 412.858 379.704 413.008C378.925 413.188 378.465 413.568 378.525 413.828C378.615 414.218 379.285 414.747 380.155 414.957Z" fill="#383838"/>
<path d="M347.144 274.517C347.783 274.916 349.432 274.945 350.732 274.645C352.55 274.225 353.02 273.295 352.119 271.177C351.439 269.418 350.16 268.619 348.471 269.01C345.873 269.61 345.065 273.218 347.144 274.517Z" fill="#383838"/>
<path d="M363.626 307.929C364.365 308.169 364.955 307.759 364.805 307.11C364.624 306.33 363.825 305.831 363.175 305.981C362.396 306.161 361.936 306.541 361.996 306.801C362.086 307.191 362.756 307.72 363.626 307.929Z" fill="#383838"/>
<path d="M380.208 368.416C381.977 368.965 382.965 366.136 381.535 364.687C380.296 363.469 378.168 364.919 378.588 366.737C378.738 367.387 379.438 368.046 380.208 368.416Z" fill="#383838"/>
<path d="M395.362 296.625C397.87 297.414 399.648 293.855 397.409 292.457C395.49 291.258 393.002 292.928 393.452 294.877C393.602 295.526 394.462 296.285 395.362 296.625Z" fill="#383838"/>
<path d="M402.905 181.844C403.554 181.694 404.054 180.894 403.904 180.245C403.724 179.465 402.954 179.096 402.304 179.246C401.525 179.426 401.125 180.066 401.306 180.845C401.456 181.495 402.125 182.024 402.905 181.844Z" fill="#383838"/>
</g>
<defs>
<clipPath id="clip0_10_62">
<rect width="504.368" height="451.698" fill="white" transform="translate(113.592 593.14) rotate(-103.016)"/>
</clipPath>
</defs>
</svg>
