<svg width="96" height="113" viewBox="0 0 96 113" fill="none" xmlns="http://www.w3.org/2000/svg">
<g clip-path="url(#clip0_11_1943)">
<path fill-rule="evenodd" clip-rule="evenodd" d="M85.1077 20.9637C84.0104 20.5953 82.8851 20.3668 82.5143 20.4662C82.2051 20.549 81.5413 20.4289 81.1473 20.2033C80.7137 19.955 79.9432 19.9296 79.4658 20.124C78.9658 20.3574 78.4093 20.5065 78.2124 20.3937C76.8786 19.89 75.7202 19.9023 75.9798 20.3627C76.1833 20.739 75.7505 20.855 74.7604 20.7559C73.9114 20.6855 72.9893 20.8332 72.692 21.0786C72.3944 21.324 71.1473 21.8572 69.9055 22.2894C68.6467 22.66 67.2257 23.4054 66.749 23.9639C66.2722 24.5224 65.6379 24.9906 65.413 25.0178C65.1487 25.0224 64.7446 25.3626 64.5205 25.754C64.2965 26.1453 63.6675 26.5127 63.2008 26.5054C62.4079 26.5191 62.3407 26.6366 62.578 27.1361C62.8547 27.6583 62.7256 27.7923 62.0618 27.6721C61.5387 27.5804 61.2288 27.2991 61.262 27.0582C61.3176 26.7783 61.1259 26.5647 60.8223 26.5467C60.4961 26.5678 60.4451 26.3827 60.7426 26.1374C61.0401 25.8919 60.9991 25.141 60.7108 24.4563C60.4225 23.7715 60.3644 22.9589 60.5437 22.6458C60.7229 22.3327 60.5815 21.9399 60.2268 21.7369C59.9115 21.5563 59.804 21.287 60.0737 21.1816C60.6409 20.8307 58.9993 18.4879 57.1345 16.9006C55.2133 15.2291 53.1261 14.7617 48.9486 15.0202C45.4852 15.2199 44.704 15.3962 44.728 16.0855C44.7342 16.3489 44.5712 16.3594 44.3571 16.1849C44.126 15.9487 43.5526 16.0362 43.0697 16.3313C42.5473 16.6038 41.9632 16.893 41.7383 16.9201C41.474 16.9247 40.8234 17.6955 40.1844 18.6288C39.5679 19.5229 38.5974 20.5782 38.0527 20.8899C35.9919 22.2043 30.0538 34.8616 29.0813 40.125C28.7978 41.6257 28.1165 43.7298 27.6074 44.8932C26.6448 46.9403 24.3168 59.69 24.6794 60.8849C24.7985 61.3167 24.8433 61.2384 24.8478 60.7735C24.8524 60.3084 24.9591 60.2135 25.1454 60.5279C25.2529 60.7973 25.1021 61.3348 24.7375 61.6974C24.3728 62.0603 24.2893 62.4803 24.5258 62.6157C24.7622 62.7511 24.8026 63.1377 24.6232 63.451C24.22 64.1554 23.4945 81.8755 23.8291 83.2105C24.0619 84.1751 23.0582 85.4712 21.7098 85.9983C19.6536 86.8477 16.9225 92.7151 17.5239 95.138C17.8819 96.7978 20.0355 96.7838 20.6953 95.0829C20.7849 94.9263 20.9704 94.8765 21.1675 94.9893C21.3645 95.1022 21.8869 94.8295 22.3188 94.3494C22.7901 93.8918 23.3913 93.6643 23.7066 93.8448C24.0613 94.0479 24.5218 93.792 24.8579 93.2049C25.1716 92.657 25.6545 92.3618 25.9304 92.5198C26.7411 92.9318 31.6935 92.2337 32.052 91.6076C32.2537 91.2553 32.5574 91.2731 32.8449 91.5938C33.1494 91.9759 33.4361 91.9322 33.7722 91.3451C34.0411 90.8756 34.9226 90.3408 35.7657 90.1482C37.2664 89.8121 38.0691 89.2322 37.0517 89.2732C36.298 89.3095 36.6009 88.9634 38.0551 87.9772C38.7685 87.554 39.3294 86.9399 39.3231 86.6764C39.3394 86.374 39.5078 86.2626 39.7443 86.3979C40.0595 86.5784 39.9367 86.9758 39.4206 87.5117C38.9493 87.9693 38.7816 88.445 38.9788 88.5578C39.3729 88.7835 41.0836 86.8008 40.9081 86.2847C40.8569 86.0996 41.0077 85.5622 41.1978 85.0475C41.4603 84.3144 41.584 84.2813 41.8329 84.9437C42.0818 85.6057 42.1659 85.55 42.3947 84.6936C42.6681 83.7589 42.7301 83.7422 43.0297 84.5894C43.3521 85.3975 43.4533 85.4036 43.7669 84.8557C43.9686 84.5034 43.9679 84.1391 43.7314 84.0038C43.495 83.8684 43.6967 83.5161 44.2691 83.0646C44.7576 82.6687 45.1105 82.1433 45.0649 81.8573C44.9969 81.6105 45.1941 81.7234 45.521 82.0663C46.017 82.6623 46.3935 82.4619 46.8801 81.3374C46.9976 81.0412 47.3909 80.9025 47.8353 80.9491C48.2178 81.012 48.6728 80.8568 48.8295 80.583C49.0312 80.2307 48.9131 80.1631 48.3514 80.4132C47.7278 80.6797 47.6882 80.657 48.2215 80.1828C48.5639 79.8593 48.9285 79.4963 48.9733 79.418C49.0181 79.3398 49.3389 79.4195 49.6541 79.6C49.9694 79.7805 50.335 79.7819 50.4694 79.5472C50.5815 79.3514 50.3503 79.1151 49.9678 79.0522C49.4222 78.9994 49.3713 78.8146 49.9215 78.4018C50.2859 78.0391 50.8479 77.7892 51.174 77.768C51.5618 77.7301 51.6289 77.6128 51.3137 77.4324C51.038 77.2745 50.9806 76.8257 51.2047 76.4344C51.5183 75.8865 51.6196 75.8924 51.6438 76.5819C51.6902 77.2319 51.7914 77.238 52.2171 76.4944C52.4859 76.0248 52.8676 75.7238 53.0647 75.8366C53.2224 75.9269 53.7887 75.2116 54.3095 74.2107C54.8301 73.2097 55.3965 72.4948 55.5542 72.5851C55.7511 72.6978 55.9475 72.4464 56.0084 72.0656C56.0748 71.584 56.3445 71.4785 56.9357 71.817C57.4874 72.1328 57.7967 72.0499 57.8631 71.5684C57.8847 71.1651 58.1596 70.9586 58.3963 71.0941C58.7116 71.2746 58.8853 71.0623 58.9177 70.4574C58.9323 69.4263 59.6843 68.6616 60.8872 68.5711C61.6238 68.4729 61.7582 68.2381 61.857 67.1516C61.9836 65.925 62.2756 65.7804 63.2501 66.5462C63.6219 66.8108 65.6534 64.9079 65.7752 64.1463C65.7968 63.743 65.6384 63.2885 65.3627 63.1306C64.9684 62.9049 65.041 62.6869 65.844 62.1071C66.4334 61.7171 67.074 61.5122 67.3104 61.6475C67.5864 61.8055 68.0191 61.6897 68.3561 61.4667C68.6757 61.1822 68.6921 60.8798 68.3768 60.6993C68.022 60.4962 68.083 60.1152 68.6217 59.5404C69.0143 59.0375 69.5364 58.765 69.7335 58.8779C69.9304 58.9906 70.0821 58.8175 70.0813 58.4532C70.0634 58.0272 70.2041 58.056 70.5873 58.4832C71.0046 59.0339 71.1507 58.9615 71.3347 58.1834C71.4512 57.5227 71.8161 57.1599 72.2433 57.1448C72.8337 57.119 72.839 57.0181 72.3266 56.7248C71.7356 56.3864 71.7857 56.2073 72.6783 55.471C73.2507 55.0195 74.1093 54.1598 74.5859 53.6013C75.4605 52.4391 76.4811 51.2048 76.7787 50.9595C76.8853 50.8645 76.9255 51.2514 76.8763 51.7946C76.8438 52.3998 76.9319 52.3981 77.1404 51.79C77.3359 51.1746 77.7401 50.8343 78.1842 50.8807C78.9494 51.007 79.8966 49.6265 79.266 49.2655C79.0689 49.1526 79.1021 48.9118 79.3325 48.7839C79.6246 48.6393 79.9453 48.7191 80.0526 48.9883C80.4082 49.5556 80.7543 48.4027 80.4435 47.7571C80.3191 47.4261 80.4652 47.3538 80.8199 47.5569C81.2928 47.8276 81.3376 47.7494 81.0609 47.2272C80.8012 46.7668 80.9188 46.4703 81.6318 46.0471C82.2215 45.6572 82.4624 45.3274 82.2763 45.013C81.8696 44.2606 82.3634 43.7638 82.899 44.3822C83.2037 44.7645 83.4902 44.7207 83.8487 44.0945C84.0952 43.664 84.432 43.4411 84.562 43.6714C84.6695 43.9408 84.9052 43.712 85.0333 43.2137C85.1614 42.7155 85.0818 42.3061 84.857 42.3333C84.2048 42.3757 84.2758 41.429 84.9326 40.9216C85.2524 40.637 85.6968 40.6836 85.9448 40.9815C86.5368 41.6842 87.1921 40.4484 86.6898 39.5892C86.3342 39.0219 86.4293 38.7646 87.3836 38.0118C88.7419 36.9187 89.8002 34.9784 89.3993 34.1253C89.2014 33.6482 89.2686 33.5308 89.7523 33.5999C90.0335 33.6569 90.4268 33.5183 90.5388 33.3227C90.6733 33.0878 90.5605 32.9193 90.2739 32.9631C89.481 32.9769 89.6416 31.8736 90.4506 31.5573C91.0518 31.3299 91.1578 30.8709 90.8847 29.5194C90.6915 28.5774 90.7061 27.5464 90.8629 27.2725C91.0197 26.9985 90.9465 26.8526 90.7214 26.8797C90.5136 26.9686 90.1133 26.4795 89.9037 25.8399C89.1849 23.7136 87.218 21.7561 85.1077 20.9637ZM73.6028 33.6557C73.1995 34.3602 73.0756 34.3932 73.0687 33.7657C73.0115 33.3173 73.1961 32.9033 73.3645 32.7918C74.033 32.447 74.1181 32.7556 73.6028 33.6557ZM70.6273 38.3958C70.1056 39.0325 69.387 39.5565 69.1005 39.6003C68.7349 39.5989 68.7681 39.3581 69.2787 38.9229C69.8344 38.4096 69.8283 38.1463 69.3552 37.8754C68.9611 37.6498 68.8984 37.3021 69.2461 36.8776C69.5489 36.5313 70.0382 36.4997 70.4662 36.8486C70.9356 37.1867 71.0516 37.0452 70.8142 36.4243C70.4183 35.4701 70.4407 35.431 71.3743 35.4458C72.1445 35.4711 72.2574 35.6396 71.9553 36.35C71.7879 36.8258 71.1882 37.7816 70.6273 38.3958ZM68.0918 38.711C67.9797 38.9067 67.6708 38.9897 67.4344 38.8543C67.2372 38.7414 67.2704 38.5006 67.5008 38.3727C67.7533 38.2055 68.0401 38.1618 68.1582 38.2294C68.237 38.2745 68.2262 38.4762 68.0918 38.711ZM67.9702 42.123C67.2469 43.112 66.0911 44.2169 65.4172 44.6628C64.7435 45.1084 64.0363 45.7948 63.8123 46.1861C63.5882 46.5774 63.2064 46.8787 62.9199 46.9225C62.2507 46.903 62.3541 45.3513 63.1222 44.2841C63.391 43.8145 63.4967 43.3555 63.2602 43.2201C63.0238 43.0847 63.3213 42.839 63.9001 42.6508C64.5182 42.4851 65.1078 42.0953 65.2423 41.8604C65.668 41.1168 66.3441 41.7637 65.9579 42.5299C65.7339 42.9212 65.7847 43.1063 66.0207 42.8775C66.2732 42.7104 66.5017 41.854 66.5674 41.0081C66.6143 39.3722 66.5919 39.4113 68.9613 40.3001C69.119 40.3903 68.7104 41.1957 67.9702 42.123ZM46.0233 34.7548C45.8759 36.749 45.6327 38.6363 45.431 38.9886C45.2518 39.3017 45.2921 39.6883 45.4891 39.8011C45.7256 39.9365 45.7264 40.3008 45.5471 40.6138C44.9645 41.6315 43.9929 47.259 44.3477 47.4621C44.5447 47.5749 44.5564 47.7373 44.3261 47.8654C44.1576 47.9768 43.3248 50.2542 42.4928 52.8956C41.6778 55.5989 40.8459 58.2404 40.6504 58.8559C40.2989 60.1098 41.1476 62.4664 41.9799 62.4751C42.306 62.454 42.8894 61.8006 43.3205 60.9562C44.7984 58.009 45.1632 57.6461 45.7999 58.2706C46.1833 58.6979 46.5318 58.6375 46.8624 58.1515C47.3222 57.5312 47.2658 57.4468 46.4056 57.5782C45.5456 57.7093 45.5287 57.6475 46.3995 57.3147C46.9388 57.1039 47.5462 57.1399 47.7549 57.4151C47.9635 57.6906 48.3631 57.8154 48.6157 57.6483C48.8855 57.5428 49.2061 57.6225 49.3137 57.8919C49.4433 58.1221 49.6234 58.1731 49.6962 57.9548C50.0762 56.9254 50.7777 56.3397 51.2901 56.633C51.6054 56.8135 51.7917 57.128 51.6573 57.3628C51.5452 57.5586 51.7092 57.9121 52.0245 58.0926C52.6945 58.4762 52.2525 59.5222 51.4373 59.5755C51.173 59.5799 50.6173 60.0933 50.2813 60.6802C49.9452 61.2673 49.199 61.9313 48.6369 62.1812C48.0977 62.3921 47.2841 63.1736 46.9032 63.839C46.5 64.5433 46.0062 65.0402 45.8091 64.9273C45.6119 64.8144 44.8656 65.4785 44.1254 66.4056C43.3628 67.372 42.5662 68.215 42.3136 68.3821C42.0438 68.4876 41.7687 68.694 41.6621 68.7887C41.3592 69.1351 40.0232 70.189 39.0743 70.8409C38.5465 71.2143 37.9184 71.946 37.6441 72.5164C37.3922 73.0478 37.0276 73.4104 36.8306 73.2976C36.5941 73.1622 36.1165 73.3566 35.7295 73.7585C35.0896 74.3277 34.4876 74.1909 35.0486 73.5765C35.1158 73.4592 35.0299 72.7866 34.7641 72.0627C34.4982 71.3388 34.475 71.0138 34.7007 71.3508C34.9998 71.8338 35.05 71.6547 34.9803 70.6796C34.8999 69.9058 35.1679 69.0722 35.5999 68.5918C36.0712 68.1342 36.194 67.7368 35.8788 67.5563C35.6423 67.4209 35.5912 67.2359 35.7821 67.0853C36.3887 66.757 36.5191 64.7012 35.9288 64.7268C35.6025 64.7482 35.4674 64.6187 35.6187 64.4457C36.359 63.5183 36.6711 62.2418 36.5603 60.5158C36.4791 59.378 36.6012 58.6163 36.8825 58.6734C37.1638 58.7305 37.2865 58.3333 37.1165 57.7161C36.924 57.1384 37.0013 56.455 37.2145 56.2653C37.4895 56.0592 37.5328 55.2524 37.3906 54.4953C37.0783 53.1213 37.1114 52.8807 37.8617 51.3873C38.0857 50.996 38.0006 50.6877 37.697 50.6695C37.4326 50.6742 37.37 50.3266 37.5942 49.9351C37.8405 49.5048 37.8335 48.8772 37.5461 48.5566C37.2586 48.2361 37.3196 47.8553 37.634 47.6718C38.5327 47.1989 39.1988 45.7613 39.0108 44.7184C38.9249 44.0458 39.0647 43.7102 39.5594 43.5774C40.0539 43.4448 40.1937 43.1092 40.1921 42.3809C40.1341 41.5681 40.2856 41.3949 40.8759 41.3693C41.4269 41.3209 41.5784 41.1477 41.5202 40.3352C41.5002 39.6999 41.427 39.6754 41.3008 40.2614C41.1896 40.8212 41.0606 40.9552 40.9586 40.585C40.5836 38.8634 43.0936 32.1941 43.9606 32.6905C44.1971 32.8259 44.2304 32.585 43.9707 32.1246C43.5247 31.3497 43.5695 31.2714 44.5416 30.9445C45.6149 30.6236 45.5901 29.5701 44.5106 29.6276C43.7572 29.664 44.1049 29.2394 45.0769 28.9126C46.1108 28.5692 46.3613 29.9597 46.0233 34.7548ZM79.0143 49.7969C78.9695 49.8752 78.3512 50.0407 77.6713 50.2232C76.8094 50.388 76.7341 50.2757 77.4454 49.8861C78.3443 49.4133 79.2608 49.3664 79.0143 49.7969ZM61.0909 48.8371C60.7935 49.0828 60.7424 48.8976 60.9889 48.467C61.196 48.0142 61.4486 47.8467 61.4772 48.0713C61.5282 48.2562 61.366 48.6311 61.0909 48.8371ZM71.1692 57.1013C71.0571 57.2971 70.7874 57.4026 70.551 57.2673C70.3538 57.1544 70.269 56.8459 70.3811 56.6501C70.5155 56.4153 70.802 56.3715 70.9992 56.4844C71.2356 56.6197 71.3036 56.8665 71.1692 57.1013ZM42.2215 59.8593C41.924 60.1049 41.873 59.9197 42.1195 59.4891C42.3265 59.0362 42.5791 58.8691 42.6077 59.0933C42.6588 59.2783 42.4965 59.6532 42.2215 59.8593ZM21.485 93.6121C21.3729 93.8079 21.0637 93.8908 20.8272 93.7554C20.6302 93.6426 20.6635 93.4017 20.8938 93.2736C21.1464 93.1065 21.4331 93.0628 21.5513 93.1305C21.6302 93.1756 21.6194 93.3773 21.485 93.6121Z" fill="#383838"/>
</g>
<defs>
<clipPath id="clip0_11_1943">
<rect width="53" height="99" fill="white" transform="translate(49.1875) rotate(29.7914)"/>
</clipPath>
</defs>
</svg>

