<svg width="172" height="162" viewBox="0 0 172 162" fill="none" xmlns="http://www.w3.org/2000/svg">
<path fill-rule="evenodd" clip-rule="evenodd" d="M141.775 60.175C141.6 60.2055 139.417 58.8757 136.951 57.2952C131.94 54.028 131.54 53.7978 130.694 53.7652C130.3 53.7439 130.153 53.5895 130.321 53.3501C130.465 53.1448 130.137 52.812 129.518 52.5299C126.514 51.1333 116.364 44.561 104.78 36.4685C98.1206 31.8382 94.8778 29.7631 94.9045 30.0885C94.873 30.4241 94.4829 30.252 93.8026 29.6205C93.2591 29.0851 92.1368 28.5006 91.3288 28.3414C90.5107 28.124 89.5493 27.6015 89.1426 27.1623C88.7599 26.6889 87.9936 26.2524 87.4629 26.1349C86.2851 25.9202 79.533 23.1666 77.4494 22.0596C76.6488 21.5991 74.9414 20.7565 73.6925 20.1341C71.6976 19.1917 65.8682 15.7071 62.9471 13.7558C62.4341 13.3952 61.9034 13.2777 61.7832 13.4487C61.663 13.6197 61.3311 13.4375 60.9928 13.0463C60.7128 12.645 59.9122 12.1845 59.2891 12.0531C58.6318 11.8977 57.6769 11.5841 57.15 11.3159C56.623 11.0477 56.1127 11.0467 56.0369 11.3C55.9268 11.5292 55.533 11.5079 55.1567 11.2434C54.7805 10.9789 54.3044 11.002 54.112 11.2756C53.8956 11.5834 53.6183 11.5418 53.3382 11.1405C53.048 10.6809 52.9315 10.7012 52.8963 11.1875C52.8611 11.6738 52.7104 11.6701 52.2593 11.1486C51.9451 10.7233 51.555 10.5512 51.4347 10.7222C51.3145 10.8932 51.0372 10.8516 50.856 10.6731C50.6305 10.4124 50.2671 10.5658 49.9887 11.0345C49.7002 11.4449 49.3951 11.5881 49.2962 11.3653C49.1631 11.1185 48.5898 11.7886 47.7788 13.1604C47.0297 14.3714 46.3121 15.2468 46.1411 15.1266C45.9701 15.0064 45.86 15.2356 45.8969 15.6193C45.9098 16.0372 45.8201 16.3829 45.6694 16.3792C45.2376 16.4845 44.221 19.6027 44.3494 20.5106C44.4029 21.1615 43.6057 22.4408 40.8102 26.1994C33.7323 35.6864 31.4722 38.9015 31.437 39.3877C31.4295 39.6891 30.8284 40.5442 30.1488 41.2929C28.0275 43.5835 26.4203 45.7243 26.8724 45.7355C27.1156 45.7531 27.1803 45.9519 27.06 46.1229C26.9158 46.3281 26.6588 46.403 26.5219 46.3068C26.1115 46.0183 24.9232 47.636 25.1311 48.1398C25.2402 48.4209 25.082 48.7186 24.801 48.8276C24.5199 48.9367 23.0847 50.6875 21.5978 52.6573C20.1209 54.6854 18.7098 56.402 18.5111 56.4667C18.2882 56.5655 18.2808 56.8669 18.4139 57.1138C18.6837 57.4569 18.5876 57.5937 17.957 57.7637C17.3607 57.9577 17.1822 58.1389 17.3356 58.5022C17.489 58.8656 16.9804 59.7345 15.868 61.0989C14.9238 62.2239 14.2469 63.3322 14.3217 63.5892C14.4206 63.8121 14.3207 64.0996 14.0637 64.1744C13.8409 64.2733 13.6448 64.6976 13.6919 65.1395C13.7288 65.5232 13.5466 65.8551 13.3034 65.8375C13.1185 65.8097 12.191 67.2019 11.3244 68.9435C8.99658 73.4908 8.62104 74.6066 9.16828 74.9912C9.4419 75.1836 9.49268 75.4749 9.25597 75.6662C8.77239 75.9906 9.27559 79.5639 10.0287 81.4732C10.3355 82.1999 10.6397 82.567 10.808 82.3275C10.9522 82.1223 11.2434 82.0716 11.4486 82.2158C11.6197 82.3361 11.6261 82.545 11.4033 82.6438C11.1805 82.7427 11.1009 83.1468 11.2062 83.5785C11.3863 84.2673 11.4446 84.2571 11.5963 83.7505C11.6861 83.4047 12.1354 83.0563 12.6115 83.0333C13.3206 82.9697 13.3308 83.0279 12.8232 83.3865C12.0447 83.9124 12.1618 85.2724 13.0853 85.9216C13.5983 86.2822 13.7389 86.2277 13.5411 85.782C13.3776 85.3604 13.4636 85.1653 13.8334 85.2209C14.1348 85.2283 14.2576 85.417 14.1134 85.6222C13.9451 85.8616 14.1364 86.0983 14.5164 86.2121C15.1155 86.3777 15.1256 86.4359 14.4951 86.6059C13.9228 86.7658 13.9051 87.0089 14.4893 87.7773C15.5689 89.1495 17.2079 89.9439 17.4013 89.16C17.491 88.8142 17.772 88.7052 18.0799 88.9216C18.3535 89.114 18.5272 89.5938 18.4135 89.9737C18.3237 90.3195 18.1933 90.4323 18.0602 90.1854C17.9271 89.9385 17.6942 89.9792 17.4778 90.287C17.1892 90.6974 17.2882 90.9202 17.7606 91.0479C18.1646 91.1275 18.5712 91.5667 18.7108 92.0225C18.8909 92.7113 18.9732 92.667 19.3931 91.6334C20.0609 89.9565 19.9418 89.6171 18.129 88.3428C17.274 87.7417 16.6278 87.1343 16.748 86.9632C16.8442 86.8264 16.5845 86.5416 16.1361 86.3798C15.6877 86.2179 15.428 85.9331 15.5723 85.7279C15.7165 85.5227 16.4967 85.8667 17.3518 86.4678C18.1828 87.1031 18.7707 87.7208 18.6505 87.8918C18.5303 88.0628 18.619 88.2273 18.8622 88.245C19.1294 88.2284 19.6386 88.7398 20.0315 89.2714C20.5232 90.0259 20.831 90.2423 21.2526 90.0787C21.6983 89.8809 21.8693 90.0012 22.0393 90.6317C22.2093 91.2623 22.5855 91.5268 23.5062 91.8163C24.5195 92.1197 24.7348 92.3222 24.5831 92.8288C24.3898 93.6128 23.7555 93.9335 23.1398 93.5007C22.9004 93.3324 22.4483 93.3212 22.2015 93.4543C21.9305 93.6216 22.0268 93.4847 22.4179 93.1464C23.0356 92.5585 22.981 92.4181 21.7599 91.6107C20.6996 90.8654 20.3298 90.8098 20.0857 91.3026C19.9377 91.6585 19.7416 92.0828 19.5973 92.288C19.5113 92.4831 20.1436 93.183 21.0772 93.8904C21.9766 94.5738 22.791 94.9419 22.9011 94.7127C22.9871 94.5176 23.4734 94.5528 24.0003 94.821C24.5729 95.1213 24.5839 95.2994 24.0335 95.3554C22.7799 95.394 22.5496 95.7943 23.683 95.9267C24.1794 96.0202 24.809 96.3605 25.0789 96.7035C25.4274 97.1529 25.4856 97.1428 25.3461 96.687C25.1381 96.1831 25.2787 96.1285 25.9803 96.3663C26.5313 96.6003 26.89 97.1078 27.0322 97.9233C27.1808 98.9477 27.2835 99.0198 27.425 98.4549C27.5286 98.0167 27.7893 97.7913 27.9604 97.9115C28.1656 98.0558 28.1581 98.3571 28.0481 98.5864C27.8798 98.8258 28.0887 98.8194 28.49 98.5393C28.977 98.2343 29.181 98.4288 29.102 99.1228C28.9557 100.349 30.1832 101.365 31.362 101.069C31.7937 100.964 32.3827 101.071 32.6905 101.288C33.1111 101.634 33.087 101.669 32.512 101.469C32.1219 101.297 31.68 101.344 31.5598 101.515C31.1751 102.062 31.9932 102.28 33.1277 101.902L34.2038 101.534L33.5039 102.166C32.9103 102.72 32.9306 102.836 33.6359 102.923C34.064 102.969 34.4985 103.223 34.5391 103.456C34.614 103.713 34.6861 103.61 34.7176 103.275C34.7389 102.881 35.0061 102.864 35.4507 103.177C35.8612 103.466 36.0488 103.853 35.9045 104.058C35.7122 104.332 35.9072 104.418 36.4998 104.374C37.4179 104.304 39.214 105.311 39.1991 105.914C39.2056 106.123 39.7907 106.381 40.4961 106.468C41.5713 106.611 41.7423 106.731 41.6451 107.378C41.6201 107.923 42.0268 108.362 43.272 109.135C44.1751 109.668 44.8693 110.207 44.7731 110.344C44.5087 110.72 44.9431 110.974 45.8473 110.997C46.5083 111.001 46.5602 110.782 46.2544 109.545C45.9587 108.366 46.0346 108.113 46.5652 108.231C46.9452 108.344 46.9997 108.485 46.7769 108.584C46.53 108.717 46.468 108.878 46.6732 109.022C46.8442 109.142 47.2381 109.164 47.4609 109.065C47.7078 108.932 48.2828 109.131 48.7616 109.468C49.2063 109.781 49.6546 109.942 49.7748 109.771C49.871 109.635 50.3194 109.796 50.7982 110.133C51.4138 110.566 51.5331 110.905 51.1965 111.384C50.8118 111.931 50.6851 111.893 50.5937 111.369C50.4413 110.495 49.8839 110.052 49.8551 110.748C49.8375 110.991 49.5804 111.066 49.2726 110.849C48.9648 110.633 48.6976 110.649 48.7142 110.917C48.6966 111.16 48.4358 111.385 48.1585 111.344C47.8571 111.336 47.7444 111.206 47.8988 111.059C48.5646 110.403 48.5415 109.926 47.8057 109.665C47.3573 109.503 46.8812 109.526 46.7609 109.697C46.6407 109.868 46.7295 110.032 46.9726 110.05C47.2158 110.068 47.4274 110.421 47.4744 110.863C47.5141 111.606 47.6509 111.702 48.4423 111.594C49.0007 111.527 49.4833 111.713 49.6025 112.052C49.7799 112.381 50.4501 112.955 51.1823 113.367C52.1437 113.89 52.335 114.126 51.8893 114.324C51.4437 114.522 51.5121 114.57 52.1971 114.54C52.6973 114.483 53.1558 114.703 53.2991 115.008C53.4423 115.314 54.2354 116.076 55.1348 116.759C56.318 117.693 56.7322 117.831 56.8358 117.392C56.9256 117.047 57.2066 116.938 57.5486 117.178C57.8907 117.419 57.8832 117.72 57.4819 118C56.9262 118.427 56.9364 118.485 57.7075 118.261C58.2215 118.111 58.7623 118.287 59.0766 118.712C59.548 119.35 60.0712 119.769 62.5514 121.257C62.9618 121.546 63.4962 121.512 63.6885 121.239C64.0492 120.726 64.5216 120.853 65.3729 121.605C65.6225 121.832 66.0709 121.994 66.4546 121.957C67.0712 121.879 67.7884 122.894 67.4075 123.291C67.3011 123.369 67.2974 123.52 67.4 123.592L68.3919 124.29C69.0075 124.722 69.333 124.696 69.7898 124.046C70.1264 123.567 70.1995 122.954 70.0221 122.625C69.7522 122.282 69.6015 122.278 69.4637 122.692C69.2842 123.384 67.7072 122.428 67.1102 121.242C66.8338 120.69 66.3753 120.47 65.4711 120.448C64.591 120.391 64.3618 120.281 64.5782 119.973C64.7946 119.665 64.6679 119.628 64.1538 119.777C63.5917 119.995 63.6056 119.903 64.1853 119.442C64.5765 119.103 64.7965 118.645 64.6875 118.364C64.5886 118.141 64.2974 118.192 64.0089 118.602C63.7444 118.978 63.1721 119.138 62.6997 119.011C62.2513 118.849 61.7031 118.974 61.5108 119.248C61.3184 119.521 60.9347 119.558 60.6611 119.366C60.3874 119.174 60.3163 118.766 60.5087 118.492C60.7251 118.185 60.592 117.938 60.1196 117.81C59.6472 117.682 59.5686 117.576 59.932 117.423C60.2371 117.279 60.3231 117.084 60.1179 116.94C59.9469 116.82 59.5632 116.857 59.3505 117.014C58.9733 117.26 58.9049 117.212 59.1453 116.87C59.2794 116.606 59.2147 116.407 58.9374 116.366C58.6943 116.348 58.5473 116.194 58.6916 115.988C59.0763 115.441 59.8362 115.669 59.6946 116.234C59.5771 116.764 60.4796 115.917 60.8098 115.229C60.8958 115.034 61.0566 115.096 61.1315 115.353C61.2646 115.6 61.0583 115.966 60.7393 116.201C60.338 116.482 60.3343 116.632 60.7485 116.77C61.0942 116.86 61.4816 116.672 61.698 116.364C61.8802 116.033 62.1372 115.958 62.2361 116.18C62.311 116.437 62.101 116.954 61.6858 117.327C61.3289 117.689 60.9784 118.26 60.9709 118.562C60.9394 118.897 61.3611 118.734 61.9547 118.18C63.2862 116.868 64.2422 116.671 64.696 117.552C64.8836 117.939 65.1498 118.433 65.2727 118.622C65.4539 118.8 65.4362 119.043 65.3059 119.156C65.1413 119.245 65.3225 119.423 65.6682 119.513C66.038 119.569 66.4938 119.429 66.7102 119.121C67.0228 118.677 67.1115 118.841 67.1132 119.711C67.0983 120.314 67.2822 120.852 67.5253 120.87C67.7342 120.863 67.8914 121.076 67.8155 121.329C67.7397 121.583 68.2223 121.768 68.9415 121.763C69.6608 121.758 70.5131 121.999 70.8653 122.298C71.2141 122.577 71.2724 122.567 71.0401 122.267C70.5446 121.663 70.7278 120.821 71.2751 121.206C71.7881 121.567 71.8823 122.45 71.6168 123.337C71.3272 124.258 72.0546 125.331 72.5355 124.647C72.6797 124.442 72.9876 124.658 73.3703 125.132C73.6605 125.591 74.4675 126.261 75.1312 126.625C75.7709 127.024 76.1674 127.405 75.9446 127.504C75.7217 127.602 75.7143 127.904 75.8917 128.233C76.0932 128.528 76.4491 128.676 76.672 128.577C76.953 128.468 76.9808 128.283 76.7756 128.139C76.4677 127.923 76.6723 126.687 77.2466 125.506C77.4427 125.082 77.5111 125.13 77.7255 125.843C77.865 126.298 77.9778 126.429 77.9852 126.127C78.0306 125.699 78.6158 125.957 79.9395 126.837C80.9656 127.558 82.2145 128.181 82.6767 128.25C83.1972 128.309 83.6419 128.622 83.8738 129.092C84.4367 130.254 83.8708 130.623 83.1434 129.549C82.5389 128.664 81.5321 128.57 81.9277 129.461C82.0266 129.684 82.1976 129.804 82.3178 129.633C82.4139 129.496 82.5027 129.661 82.4813 130.055C82.4349 130.993 83.8078 131.294 84.2341 130.469C84.973 129.2 85.3022 129.022 86.0648 129.61C86.7831 130.115 86.7591 130.149 85.8928 130C85.2697 129.868 85.6219 130.167 86.9493 130.896C88.2084 131.576 88.776 132.078 88.6077 132.317C88.4634 132.522 88.5826 132.862 88.8904 133.078C89.3693 133.415 89.4414 133.312 89.3879 132.661C89.3242 131.952 89.4749 131.956 90.2958 132.533C90.9798 133.014 91.223 133.031 91.0594 132.61C90.8617 132.164 91.0262 132.075 91.738 132.371C92.2446 132.523 92.6412 132.904 92.5552 133.099C92.4793 133.352 92.6568 133.681 92.9304 133.874C93.2724 134.114 93.461 133.991 93.5166 133.622C93.5139 133.262 93.6609 133.416 93.8207 133.989C94.0249 134.643 94.2061 134.822 94.477 134.654C94.7137 134.463 95.1722 134.683 95.5105 135.074C96.0743 135.726 96.1326 135.716 96.0865 134.764C96.0506 133.87 96.0747 133.836 96.2548 134.524C96.5237 135.378 97.9159 136.305 98.9809 136.39C99.3747 136.411 99.6003 136.672 99.5789 137.065C99.5678 137.518 99.7489 137.696 100.283 137.663C100.667 137.626 101.618 138.09 102.381 138.677C103.143 139.265 103.831 139.595 103.917 139.4C104.003 139.205 104.534 139.322 105.105 139.673C105.642 139.999 106.567 140.138 107.081 139.988C107.852 139.764 107.944 139.778 107.495 140.126C107.176 140.362 107.004 140.752 107.171 141.023C107.363 141.26 107.154 141.266 106.812 141.026C106.362 140.744 106.239 140.895 106.441 141.48C106.71 142.334 106.593 142.354 105.365 141.848C103.78 141.194 103.883 141.266 103.005 140.189C102.475 139.561 102.383 139.547 102.566 140.086C102.795 140.706 102.712 140.75 102.199 140.39C101.857 140.149 101.566 140.2 101.548 140.443C101.517 140.779 101.756 140.947 102.116 140.944C102.952 140.919 103.926 141.859 103.859 142.681C103.858 143.191 103.975 143.171 104.311 142.692C104.744 142.076 104.778 142.1 104.999 143.022C105.101 143.605 105.377 144.157 105.548 144.277C105.719 144.397 105.703 144.13 105.539 143.708C105.317 143.297 105.26 142.797 105.404 142.591C105.741 142.113 108.599 144.735 108.546 145.464C108.545 145.975 108.682 146.071 109.264 145.969C109.789 145.878 109.933 145.673 109.841 145.149C109.76 144.683 109.952 144.409 110.611 144.054C111.41 143.645 111.434 143.61 110.574 143.67C110.074 143.728 109.66 143.59 109.619 143.357C109.588 143.182 109.729 143.128 109.968 143.296C110.242 143.488 110.537 143.287 110.699 142.838C110.933 142.287 111.097 142.199 111.343 142.576C111.825 143.272 111.644 144.474 110.893 145.325C110.57 145.712 110.452 146.242 110.654 146.537C110.821 146.808 111.074 146.884 111.195 146.713C111.675 146.029 111.864 145.906 112.577 145.692C113.207 145.522 113.221 145.429 112.598 145.298C112.184 145.16 111.866 144.885 111.884 144.642C111.891 144.341 112.158 144.324 112.432 144.517C112.706 144.709 114.028 144.718 115.343 144.519C116.659 144.32 117.878 144.257 118.015 144.353C119.144 145.147 121.741 144.724 122.185 143.656C122.323 143.242 123.424 144.22 123.398 144.765C123.401 145.124 123.576 145.094 123.84 144.717C124.129 144.307 124.362 144.266 124.55 144.654C124.659 144.935 124.745 144.74 124.701 144.147C124.645 143.137 125.487 141.94 126.034 142.324C126.171 142.42 126.578 142.349 126.897 142.114C127.216 141.878 127.254 141.751 126.919 141.72C126.583 141.688 126.731 141.332 127.397 140.676C127.956 140.098 128.359 139.308 128.312 138.866C128.268 138.273 128.316 138.205 128.504 138.593C128.647 138.898 129.007 138.895 129.432 138.581C129.857 138.266 130.217 138.264 130.384 138.535C130.528 138.84 130.549 138.446 130.485 137.737C130.338 136.202 130.841 134.614 131.502 134.619C131.745 134.636 132.074 134.459 132.218 134.254C132.411 133.98 132.308 133.908 131.887 134.071C131.383 134.279 131.314 134.231 131.456 133.666C131.559 133.228 131.806 133.095 132.08 133.287C132.319 133.456 132.84 133.515 133.213 133.42C133.762 133.294 133.697 133.095 132.862 132.611C132.257 132.236 131.884 131.821 132.004 131.65C132.125 131.479 132.529 131.559 132.939 131.847C133.418 132.184 133.709 132.133 133.823 131.753C133.889 131.441 134.28 131.103 134.653 131.008C135.201 130.882 135.25 130.814 134.685 130.672C133.959 130.469 134.564 129.463 136.375 127.977C137.109 127.369 137.161 127.15 136.682 126.813C136.34 126.572 136.314 126.247 136.67 125.885C136.955 125.625 137.363 125.554 137.51 125.708C137.657 125.863 138.02 125.709 138.261 125.367C138.501 125.025 138.474 124.7 138.231 124.682C137.964 124.699 138.016 124.48 138.369 124.268C138.712 123.998 138.846 123.735 138.675 123.614C138.196 123.278 139.395 121.718 140.056 121.723C140.45 121.745 140.502 121.525 140.27 121.056C139.939 120.363 140.18 119.511 140.645 119.94C141.223 120.499 141.582 120.497 141.33 119.91C140.979 119.101 142.244 116.72 142.643 117.461C142.753 117.742 142.77 117.499 142.62 116.985C142.421 116.299 142.557 116.105 143.029 116.403C143.611 116.812 143.6 116.754 143.143 116.023C142.819 115.54 142.645 115.06 142.717 114.957C142.813 114.82 142.95 114.917 143.025 115.174C143.124 115.396 143.411 115.496 143.692 115.387C143.915 115.288 143.967 115.069 143.762 114.925C143.556 114.781 143.55 114.572 143.807 114.497C144.03 114.398 144.164 114.135 144.075 113.97C143.823 113.384 145.471 111.476 146.224 111.495C146.803 111.544 146.851 111.475 146.441 111.187C146.064 110.922 146.161 110.785 146.942 110.619C147.524 110.518 148.076 110.241 148.196 110.07C148.317 109.899 148.132 109.871 147.827 110.015C147.487 110.134 147.039 109.972 146.827 109.619C146.513 109.194 146.613 108.906 147.285 108.459C147.793 108.1 148.081 107.69 148 107.224C147.919 106.758 148.094 106.727 148.675 107.136C149.359 107.617 149.441 107.572 149.412 106.887C149.365 106.445 149.465 106.158 149.636 106.278C149.773 106.374 149.77 106.015 149.61 105.442C149.46 104.928 149.444 104.661 149.611 104.932C149.976 105.649 150.871 105.102 150.705 104.321C150.579 103.773 150.545 103.749 150.5 104.177C150.468 104.513 150.255 104.67 150.084 104.549C149.469 104.117 150.347 103.303 151.117 103.589C151.692 103.789 151.716 103.755 151.159 103.312C150.636 102.893 150.65 102.8 151.194 102.825C151.797 102.84 151.893 102.703 151.751 101.888C151.625 101.34 151.795 100.59 152.117 100.204L152.646 99.4512L152.425 100.42C152.284 100.985 152.283 101.495 152.385 101.567C152.522 101.664 152.728 101.297 152.904 100.757C153.056 100.25 153.386 99.5623 153.636 99.2785C153.877 98.9365 154.015 98.5223 153.882 98.2754C153.807 98.0184 154.047 97.6764 154.541 97.4102C155.127 97.1579 155.237 96.9287 154.998 96.7604C154.793 96.6161 154.786 96.4072 155.043 96.3323C155.266 96.2334 155.366 95.9459 155.257 95.6649C155.148 95.3838 155.248 95.0963 155.471 94.9974C156.454 94.6158 157.117 93.5999 156.783 93.058C156.458 92.5745 156.506 92.506 157.226 92.5006C157.702 92.4776 158.093 92.1393 158.351 91.5541C158.613 90.8183 158.524 90.6537 157.931 90.697C157.455 90.72 157.26 90.6341 157.429 90.3946C157.573 90.1894 157.759 89.7068 157.862 89.2686C158.004 88.7038 158.144 88.6493 158.469 89.1329C158.827 89.6405 158.968 89.586 159.35 88.6791C159.574 88.0699 159.723 87.2036 159.666 86.7035C159.608 86.2033 159.75 85.6384 159.987 85.4471C160.247 85.2216 160.214 84.6872 159.982 84.2175C159.553 83.3021 159.712 82.4942 160.477 81.5504C161.85 79.9605 162.087 79.7691 162.333 80.1464C162.524 80.3831 162.731 80.017 162.928 79.0824C163.118 77.9388 162.948 77.3082 162.214 76.5361C161.67 76.0007 161.301 75.4349 161.421 75.2638C161.71 74.8534 159.401 73.4857 158.609 73.5937C157.585 73.7424 157.37 73.5398 154.889 70.6715C153.717 69.2855 151.799 67.5794 150.441 66.6759C149.175 65.7863 148.173 65.0308 148.245 64.9282C148.317 64.8256 147.764 64.232 146.977 63.679C145.999 62.8893 145.653 62.7995 145.851 63.2452C146.059 63.7491 145.884 63.7795 145.166 63.2746C144.619 62.8899 144.373 62.5127 144.654 62.4036C145.264 62.1171 144.351 61.5262 143.536 61.6684C143.07 61.7497 142.762 61.5333 142.475 60.9231C142.278 60.4774 141.915 60.1205 141.775 60.175ZM131.6 64.9807C130.76 65.1571 130.438 65.0331 130.083 64.3748C129.797 63.7646 129.523 63.5722 129.136 63.7598C128.773 63.9133 128.602 63.7931 128.609 63.4917C128.662 62.7622 129.949 63.258 130.437 64.1632C130.812 64.938 131.079 64.9214 131.433 64.1994C131.529 64.0626 131.807 64.1042 132.149 64.3447C132.662 64.7053 132.58 64.7497 131.6 64.9807ZM134.261 66.6471C134.213 66.7155 133.925 66.6156 133.652 66.4233C133.378 66.2309 133.235 65.9258 133.379 65.7206C133.499 65.5496 133.787 65.6495 133.988 65.9444C134.166 66.2736 134.309 66.5787 134.261 66.6471ZM135.944 67.5238C135.927 67.767 135.67 67.8418 135.362 67.6254C135.054 67.409 135.037 67.1419 135.26 67.043C135.507 66.9099 135.774 66.8933 135.843 66.9414C135.911 66.9895 135.986 67.2465 135.944 67.5238ZM138.908 70.5781C138.733 70.6085 138.59 70.3034 138.611 69.9096C138.636 69.365 138.558 69.2587 138.317 69.6007C138.149 69.8402 137.906 69.8225 137.797 69.5415C137.619 69.2123 137.774 69.0653 138.226 69.0765C138.897 69.1395 139.514 70.4423 138.908 70.5781ZM126.202 61.3907C126.13 61.4933 125.873 61.5682 125.595 61.5265C125.352 61.5089 125.229 61.3203 125.35 61.1493C125.494 60.944 125.785 60.8933 125.956 61.0135C126.161 61.1577 126.25 61.3223 126.202 61.3907ZM106.298 48.2673C106.178 48.4384 106.242 48.6371 106.485 48.6548C106.753 48.6382 106.653 48.9257 106.286 49.2298C105.634 49.7936 105.565 49.7455 105.368 48.7895C105.087 47.5183 105.365 47.0496 106.049 47.5305C106.323 47.7228 106.442 48.0621 106.298 48.2673ZM122.845 59.6955C122.349 59.602 122.301 59.6704 122.509 60.1743C122.706 60.62 122.556 60.6163 122.057 60.1632C120.976 59.3013 121.841 58.5803 122.921 59.4422C123.332 59.7307 123.318 59.8232 122.845 59.6955ZM112.922 53.3839C112.802 53.5549 112.51 53.6057 112.305 53.4614C112.134 53.3412 112.186 53.1221 112.409 53.0232C112.656 52.8901 112.923 52.8736 113.025 52.9457C113.094 52.9938 113.066 53.1787 112.922 53.3839ZM118.881 57.2661C118.832 57.3345 118.473 57.3372 118.093 57.2234C117.747 57.1337 117.634 57.0033 117.881 56.8702C118.327 56.6724 119.073 56.9925 118.881 57.2661ZM89.4237 37.3763C89.3034 37.5473 88.9438 37.55 88.636 37.3337C88.3624 37.1413 88.3458 36.8741 88.5686 36.7752C88.8155 36.6422 89.1511 36.6736 89.3563 36.8179C89.5273 36.9381 89.5679 37.1711 89.4237 37.3763ZM91.6201 38.6137C91.5479 38.7163 91.2909 38.7912 91.0136 38.7495C90.7704 38.7319 90.6475 38.5433 90.7677 38.3723C90.912 38.167 91.2032 38.1163 91.3742 38.2365C91.5794 38.3807 91.6681 38.5453 91.6201 38.6137ZM96.2733 42.7536C96.2483 43.2981 96.0938 43.4451 95.7518 43.2047C95.5124 43.0364 95.4958 42.7692 95.7528 42.6944C95.9756 42.5955 95.7945 42.417 95.3461 42.2551C94.4596 41.9896 93.5574 40.9466 93.8459 40.5362C94.2066 40.0231 96.316 41.9659 96.2733 42.7536ZM99.1714 44.2287C98.9486 44.3276 98.8968 44.5467 99.1362 44.715C99.3756 44.8833 99.4061 45.058 99.1971 45.0645C98.6729 45.1559 98.3837 44.1861 98.8534 43.9541C99.1104 43.8793 99.3434 43.8386 99.446 43.9107C99.5486 43.9829 99.4183 44.0956 99.1714 44.2287ZM100.704 45.1017C100.529 45.1322 100.197 44.9501 100.03 44.6791C99.8287 44.3842 100.003 44.3537 100.38 44.6182C100.78 44.8484 100.913 45.0953 100.704 45.1017ZM103.249 46.7885C102.984 47.1647 102.238 46.8447 102.25 46.3926C102.267 46.1495 102.524 46.0747 102.798 46.267C103.106 46.4834 103.297 46.7201 103.249 46.7885ZM108.126 50.3192C108.608 51.0154 108.037 52.0453 107.517 51.4757C107.087 51.0706 106.969 50.221 107.281 49.7764C107.497 49.4685 107.634 49.5647 108.126 50.3192ZM126.711 63.7927C126.621 64.1384 126.258 64.2919 125.809 64.13C125.166 63.8821 125.18 63.7896 125.907 63.4828C126.938 63.0328 126.904 63.0087 126.711 63.7927ZM133.059 68.3572C132.412 68.26 131.935 68.2831 132.038 68.3552C133.053 69.5286 133.874 70.1056 134.09 69.7978C134.258 69.5584 134.498 69.7267 134.853 70.385C135.272 71.2421 135.307 71.2662 135.223 70.4406C135.203 69.8137 135.289 69.6187 135.563 69.811C135.768 69.9553 135.873 70.387 135.784 70.7328C135.728 71.1026 135.765 71.4863 135.97 71.6305C136.141 71.7507 136.359 72.3129 136.451 72.8371C136.559 73.4584 136.479 73.5724 136.21 73.1792C135.896 72.7538 135.41 72.7186 134.495 73.1483C133.768 73.4551 132.442 73.5963 131.552 73.4815C129.148 73.1206 127.603 73.2099 127.66 73.7101C127.725 73.9089 127.609 73.9292 127.451 73.7166C127 73.195 123.352 73.4412 121.734 74.1435C121.008 74.4504 120.542 74.5316 120.734 74.258C120.926 73.9844 120.056 73.9861 118.867 74.2235C117.644 74.4368 116.626 74.7944 116.564 74.9553C116.478 75.1503 116.269 75.1567 116.064 75.0125C115.619 74.6999 114.071 74.94 114.166 75.3136C114.162 75.4642 113.799 75.6176 113.265 75.6508C112.463 75.7006 112.429 75.6765 112.981 75.4002C113.344 75.2468 112.858 75.2116 111.868 75.3843C110.936 75.5468 109.737 75.726 109.26 75.749C108.784 75.7721 108.383 76.0521 108.341 76.3295C108.334 76.6309 108.252 76.6752 108.108 76.3701C107.975 76.1232 107.557 76.1361 107.166 76.4744C106.765 76.7544 106.426 76.8736 106.395 76.6989C106.365 76.5241 106.019 76.4344 105.611 76.5055C105.204 76.5767 104.378 76.6606 103.727 76.7141C103.076 76.7676 102.524 77.044 102.517 77.3454C102.485 77.681 102.427 77.6911 102.284 77.386C102.141 77.0809 101.873 77.0975 101.575 77.4497C101.334 77.7917 101.159 77.8222 101.259 77.5347C101.405 76.8191 97.6085 77.4212 97.429 78.1127C97.3633 78.4243 97.048 78.5092 96.7402 78.2928C96.4324 78.0765 96.0247 78.1476 95.8083 78.4554C95.5679 78.7974 95.2664 78.79 95.065 78.495C94.8191 78.1178 94.5861 78.1584 94.3762 78.6752C94.1662 79.1919 93.7002 79.2732 92.7896 79.0419C92.1222 78.8282 91.4371 78.8577 91.3169 79.0287C91.1726 79.2339 90.813 79.2366 90.5052 79.0202C90.2316 78.8279 89.9644 78.8445 89.9468 79.0876C89.9634 79.3548 88.9491 79.5617 87.7537 79.5902C86.5583 79.6186 85.7087 79.7368 85.8899 79.9152C86.0609 80.0355 85.7595 80.028 85.1706 79.9207C84.6057 79.7791 84.174 79.8844 84.1323 80.1618C84.1073 80.7063 82.5549 81.0971 82.0077 80.7124C81.8025 80.5681 81.5935 80.5746 81.5657 80.7595C81.4797 80.9545 81.2569 81.0534 81.0138 81.0358C79.5688 80.8377 77.581 81.4845 77.4598 82.1658C77.2867 83.0663 76.7967 83.1817 75.9416 82.5807C75.3944 82.196 74.9487 82.3937 74.5122 83.1601C74.4743 83.2867 73.7347 83.1757 72.9166 82.9582C72.0984 82.7408 71.4133 82.7703 71.4299 83.0375C71.3883 83.3148 70.9057 83.1289 70.2355 82.5556C69.6097 82.0646 69.2271 81.5911 69.4259 81.5265C69.5904 81.4377 69.1709 80.5806 68.4638 79.6236C67.6097 78.5122 67.2623 77.5525 67.414 77.0459C67.5417 76.5735 67.4363 76.1418 67.1729 76.0077C66.8854 75.9078 66.5379 74.9481 66.3551 73.8996C66.1482 72.8854 65.7526 71.9941 65.4512 71.9866C65.1397 71.9209 65.0713 71.8728 65.3043 71.8322C65.7601 71.6927 64.8773 66.1149 64.33 65.7303C64.159 65.61 64.2108 65.3909 64.4337 65.2921C64.6805 65.159 64.7083 64.9741 64.5373 64.8539C64.0927 64.5413 63.1452 58.7648 63.4818 58.2859C63.602 58.1149 63.5474 57.9744 63.3727 58.0049C62.9067 58.0862 62.3223 54.0468 62.8021 53.8731C63.0249 53.7742 63.0527 53.5893 62.8475 53.4451C62.4371 53.1565 62.0649 50.8508 62.3534 50.4403C62.4736 50.2693 62.6687 50.3553 62.8119 50.6604C62.9311 50.9997 63.0134 50.9554 63.069 50.5856C63.0663 50.226 62.8306 49.907 62.4848 49.8172C62.1391 49.7275 61.9819 49.5148 62.1022 49.3438C62.2464 49.1386 62.1716 48.8816 61.9664 48.7373C61.4191 48.3526 61.3121 47.0509 61.8197 46.6923C62.0564 46.5009 62.0676 46.0488 61.7395 45.716C61.1313 44.9818 61.1401 42.2794 61.7578 41.6916C62.0426 41.4318 61.9677 41.1748 61.5637 41.0952C61.218 41.0055 60.8871 40.3129 60.8032 39.4873C60.6951 38.6959 60.4818 37.4728 60.3599 36.7738C60.2038 36.0508 60.1984 35.3315 60.3426 35.1263C60.4869 34.9211 60.304 33.8727 59.9363 32.7965C59.5925 31.6861 59.3856 30.6719 59.5058 30.5009C59.626 30.3299 59.5356 29.2953 59.3186 28.2228C58.9224 25.9512 59.2857 25.7978 61.7077 27.296C62.6108 27.8287 64.3284 28.7294 65.4988 29.2455C66.6691 29.7616 67.942 30.3498 68.3664 30.5459C68.7324 30.7521 69.4859 30.7708 69.9658 30.597C70.5039 30.4132 70.7572 30.489 70.5888 30.7285C70.2282 31.2415 73.7142 33.3343 74.6461 33.1717C74.9373 33.1209 75.3274 33.293 75.5188 33.5297C75.6861 33.8006 76.042 33.9486 76.323 33.8395C76.5699 33.7064 76.6217 33.4874 76.4507 33.3671C76.2455 33.2229 76.1947 32.9317 76.363 32.6922C76.5072 32.487 76.7328 32.7478 76.8686 33.3543C77.0247 34.0773 77.2502 34.338 77.6136 34.1846C77.9187 34.0414 78.1822 34.1755 78.2773 34.549C78.512 35.3783 80.299 35.8169 80.7558 35.167C80.9482 34.8934 81.3596 34.6716 81.6952 34.7031C82.0548 34.7004 82.0511 34.8511 81.6498 35.1311C81.3308 35.3668 81.217 35.7468 81.4185 36.0417C81.9001 36.738 82.8154 36.3082 82.5086 35.5815C82.3894 35.2422 82.896 35.3939 83.8232 35.8924C85.0924 36.6313 85.3281 36.9503 85.1283 37.5253C84.9563 37.9155 85.0413 38.2307 85.2845 38.2483C85.5276 38.2659 85.7643 38.0746 85.7819 37.8315C85.7653 37.5643 85.9641 37.4996 86.1351 37.6198C86.3403 37.7641 86.343 38.1237 86.1507 38.3973C85.6698 39.0814 87.6536 40.4759 88.9451 40.3106C89.6783 40.2128 89.8835 40.357 89.8724 40.8091C89.851 41.2029 89.7345 41.2233 89.571 40.8017C89.3833 40.4143 89.2909 40.4004 89.2696 40.7942C89.2306 41.4312 90.7569 42.0953 91.4836 41.7885C91.7064 41.6896 91.8635 41.9023 91.7738 42.248C91.6841 42.5938 91.9844 43.1115 92.4531 43.3899C93.0586 43.7644 93.3739 43.6794 93.6421 43.1525C93.901 42.6872 94.0458 42.772 94.0765 43.4068C94.1402 44.116 94.4887 44.5653 95.3132 44.9917C95.9668 45.2978 96.466 45.7509 96.4484 45.9941C96.3993 46.5728 97.7129 47.394 98.0014 46.9836C98.1697 46.7441 98.3989 46.8542 98.5967 47.2999C98.7843 47.6873 99.6153 48.3225 100.43 48.6906C101.278 49.0828 101.928 49.5396 101.935 49.7486C101.906 50.4438 104.533 52.0862 105.099 51.7174C105.394 51.5159 105.46 51.2044 105.254 51.0601C105.049 50.9159 105.053 50.7652 105.252 50.7005C105.461 50.6941 105.741 51.0954 105.856 51.5854C106.142 52.7059 107.505 54.3287 108.009 54.1208C108.396 53.9332 111.245 55.987 111.518 56.6897C111.651 56.9366 111.88 57.0466 112.045 56.9579C112.199 56.8109 112.949 56.9803 113.637 57.3104C114.349 57.6064 114.769 57.9532 114.546 58.052C114.125 58.2156 116.977 60.1188 117.765 60.1614C118.042 60.2031 118.764 60.5573 119.414 61.0141C120.929 62.1303 125.89 65.1063 130.58 67.7392C131.302 68.0934 131.834 67.7006 131.208 67.2096C130.514 66.6705 132.194 67.1876 133.269 67.8405L134.25 68.4795L133.059 68.3572ZM97.9049 43.8494C97.682 43.9483 97.254 43.9029 97.0488 43.7587C96.8094 43.5904 96.9398 43.4776 97.3918 43.4888C98.3302 43.5352 98.467 43.6314 97.9049 43.8494ZM106.704 50.5972C106.56 50.8024 106.399 50.7404 106.266 50.4936C106.167 50.2708 106.188 49.8769 106.309 49.7059C106.453 49.5007 106.648 49.5867 106.747 49.8095C106.88 50.0564 106.824 50.4262 106.704 50.5972ZM85.5161 35.4471C85.3414 35.4776 85.0095 35.2954 84.8422 35.0245C84.6407 34.7295 84.8155 34.699 85.1917 34.9635C85.592 35.1938 85.725 35.4406 85.5161 35.4471ZM93.2181 41.0658C93.1764 41.3432 93.0156 41.2812 92.8141 40.9862C92.3668 40.314 92.4325 40.0025 92.9113 40.3391C93.1165 40.4834 93.2598 40.7885 93.2181 41.0658ZM79.9289 32.4904C79.7365 32.764 79.4314 32.9073 79.2946 32.8111C79.1578 32.7149 79.1551 32.3553 79.2106 31.9855C79.3244 31.6055 79.5713 31.4725 79.8449 31.6648C80.0843 31.8331 80.1212 32.2168 79.9289 32.4904ZM77.0548 30.9811C76.6231 31.0864 75.8974 30.8829 75.3843 30.5222C74.7243 30.0072 74.68 29.9249 75.3234 30.1728C75.7717 30.3346 76.3606 30.442 76.6861 30.4152C77.5597 30.2628 77.8842 30.7464 77.0548 30.9811ZM88.8991 39.3584C88.7244 39.3889 88.3925 39.2067 88.2252 38.9358C88.0237 38.6408 88.1985 38.6103 88.5747 38.8748C88.975 39.1051 89.108 39.3519 88.8991 39.3584ZM107.519 52.3456C107.447 52.4482 107.19 52.523 106.913 52.4814C106.67 52.4638 106.547 52.2752 106.667 52.1041C106.811 51.8989 107.102 51.8481 107.273 51.9684C107.479 52.1126 107.567 52.2772 107.519 52.3456ZM74.0531 29.9442C73.8784 29.9746 73.5465 29.7925 73.3792 29.5216C73.1777 29.2266 73.3525 29.1961 73.7287 29.4606C74.129 29.6908 74.2621 29.9377 74.0531 29.9442ZM78.9607 33.6496C78.9912 33.8243 78.7037 33.7244 78.3376 33.5182C77.9373 33.2879 77.7016 32.9689 77.8219 32.7979C78.0142 32.5243 78.8693 33.1253 78.9607 33.6496ZM70.7409 28.3312C70.3471 28.3099 69.8506 28.2164 69.6454 28.0721C69.4744 27.9519 69.663 27.829 70.0569 27.8503C70.4507 27.8717 70.9813 27.9892 71.1524 28.1094C71.3576 28.2537 71.1347 28.3525 70.7409 28.3312ZM68.9333 29.6668C68.409 29.7582 68.3545 29.6177 68.8076 29.1186C69.1784 28.6638 69.4114 28.6231 69.4724 28.9726C69.5435 29.3803 69.341 29.5957 68.9333 29.6668ZM73.2688 31.6414C72.0569 31.4027 71.5096 31.018 72.4138 31.0403C72.8076 31.0617 73.3826 31.2615 73.6563 31.4538C73.9983 31.6942 73.8577 31.7488 73.2688 31.6414ZM146.24 84.5737C146.574 87.0062 145.965 88.6729 142.621 94.4478C141.373 96.5859 140.352 98.4745 140.455 98.5467C140.489 98.5707 139.76 99.8982 137.736 103.432C137.141 104.496 136.519 105.745 136.367 106.252C136.191 106.793 135.824 107.097 135.43 107.075C135.037 107.054 134.906 107.167 135.077 107.287C135.282 107.431 134.794 108.417 133.918 109.59C133.125 110.718 132.53 111.782 132.595 111.981C132.684 112.146 132.268 113.029 131.642 113.918C129.787 116.702 127.024 121.505 123.665 127.883C122.252 130.62 117.45 137.67 116.863 137.922C116.558 138.065 116.213 137.975 116.104 137.694C115.97 137.448 115.341 137.107 114.649 136.928C113.992 136.772 112.832 136.314 112.158 135.892C111.46 135.503 110.734 135.3 110.522 135.457C110.309 135.614 109.984 135.641 109.813 135.521C109.607 135.376 109.693 135.181 109.974 135.072C110.643 134.776 108.675 134.159 107.972 134.431C107.575 134.561 107.53 134.478 107.747 134.171C107.891 133.965 107.625 133.472 107.146 133.135C106.667 132.798 106.263 132.719 106.28 132.986C106.262 133.229 105.967 133.431 105.666 133.423C105.272 133.402 105.286 133.309 105.649 133.156C106.036 132.968 106.006 132.794 105.489 132.584C105.065 132.388 104.609 132.527 104.485 132.849C104.313 133.239 104.235 133.133 104.181 132.482C104.138 131.889 103.745 131.357 103.023 131.003C101.1 129.958 97.1519 127.796 96.4438 127.349C96.0435 127.119 95.2254 126.902 94.6707 126.818C93.8728 126.717 93.4384 126.463 93.1861 125.877C92.9301 125.441 92.5779 125.143 92.3791 125.207C92.1563 125.306 91.5369 125.024 90.9795 124.581C90.4563 124.162 89.9053 123.928 89.7611 124.134C89.6409 124.305 89.2406 124.074 88.8681 123.659C88.4614 123.22 87.9585 122.917 87.7117 123.051C87.4648 123.184 86.9619 122.881 86.5552 122.442C86.1725 121.969 85.0262 121.418 84.0472 121.139C83.0442 120.894 81.3266 119.993 80.1979 119.2C77.9747 117.637 74.3963 115.53 71.7275 114.165C70.7763 113.701 68.9839 112.543 67.674 111.571C66.33 110.575 65.4027 110.077 65.5561 110.44C65.6753 110.779 64.4847 110.147 62.7505 108.979C57.8013 105.551 57.6062 105.465 57.865 106.26C58.1071 106.788 58.0146 106.774 57.6459 106.208C57.3658 105.807 56.7539 105.223 56.251 104.921C55.3821 104.412 53.6821 103.268 52.9537 102.705C51.8832 101.901 40.0508 94.4523 39.4758 94.2525C39.2808 94.1665 39.0173 94.0324 38.9388 93.926C38.3001 93.0171 35.5879 91.0594 35.0295 91.1268C34.4951 91.16 34.3139 90.9816 34.3769 90.3104C34.4122 89.8241 34.2892 89.6355 34.145 89.8407C33.8084 90.3195 32.6621 89.7692 32.9987 89.2904C33.0948 89.1536 32.3702 88.4397 31.3922 87.65C30.4142 86.8603 29.2892 85.9162 28.9167 85.501C28.5442 85.0858 27.4673 84.0733 26.4894 83.2836C25.5354 82.4597 24.6092 81.4508 24.3874 81.0394C24.1998 80.652 23.5777 80.0103 23.0305 79.6256C22.4833 79.2409 21.9814 78.4281 21.9038 77.8115C21.8263 77.1948 21.5981 76.5744 21.3586 76.4061C21.1534 76.2619 20.8568 75.5934 20.7108 74.9286C20.5547 74.2056 20.343 73.8525 20.1507 74.1261C20.0064 74.3313 19.8734 74.0844 19.8642 73.5158C19.8246 72.7725 20.0169 72.4989 20.531 72.3492C20.8703 72.23 21.0248 72.083 20.8297 71.997C19.9469 71.5808 19.9885 71.3035 20.9408 71.2574C21.5093 71.2483 21.7562 71.1152 21.5066 70.8887C21.233 70.6963 21.3468 70.3164 21.9404 69.7627C22.4037 69.3218 22.5137 69.0925 22.2669 69.2256C21.996 69.3929 21.6123 69.4298 21.4413 69.3096C21.0651 69.0451 21.7549 68.3546 22.4159 68.3594C22.7413 68.3326 22.8754 68.0692 22.7599 67.5791C22.6482 66.9384 22.5798 66.8903 22.5307 67.4691C22.4955 67.9554 22.379 67.9757 22.2154 67.5541C22.0177 67.1084 22.1721 66.9615 22.9154 66.9218C23.8195 66.9442 23.8094 66.8859 23.0468 66.2987C22.4894 65.8558 22.4691 65.7393 22.9516 65.9252C23.8825 66.273 24.2913 65.6916 23.5388 65.1626C23.0258 64.8019 23.0739 64.7335 23.6184 64.7586C24.2554 64.7975 24.3516 64.6607 24.2676 63.8351C24.2344 63.3008 24.3204 63.1057 24.4294 63.3868C24.5727 63.6919 24.9425 63.7474 25.2615 63.5117C25.5564 63.3102 25.6184 63.1494 25.3411 63.1077C25.0637 63.0661 24.975 62.9015 25.1193 62.6963C25.2635 62.4911 25.1748 62.3265 24.8975 62.2848C24.6201 62.2432 24.6821 62.0823 24.977 61.8808C25.296 61.6451 25.6215 61.6184 25.7204 61.8412C25.8091 62.0058 26.1938 61.4586 26.5859 60.6099C27.0021 59.7271 27.189 58.7342 27.0698 58.3949C26.8619 57.891 26.9442 57.8466 27.3888 58.1592C27.9019 58.5198 28.0322 58.4071 28.2192 57.4142C28.3783 56.6062 28.5846 56.2401 28.9544 56.2957C29.5571 56.3106 30.4847 54.9184 30.3045 54.2296C30.2879 53.9625 30.1816 54.041 30.1741 54.3424C30.1288 54.7705 29.9781 54.7667 29.6879 54.3072C29.2849 53.7173 29.3089 53.6831 30.1752 53.8321C31.0174 54.0153 31.1237 53.9367 31.7129 52.1534C32.2402 50.531 32.3604 50.36 32.6848 50.8436C33.122 51.4575 33.3828 51.232 33.4431 50.2012C33.4644 49.8073 33.1945 49.4643 32.8487 49.3746C32.503 49.2848 32.3598 48.9797 32.5281 48.7403C32.6964 48.5009 33.0421 48.5906 33.3804 48.9817C33.8315 49.5033 33.9961 49.4145 34.7451 48.2035C35.2158 47.4612 35.6876 46.2086 35.7987 45.469C35.9615 44.5103 36.0818 44.3393 36.2453 44.7609C36.4329 45.1483 36.5393 45.0698 36.691 44.5632C36.8566 43.9641 36.9971 43.9096 37.2531 44.3451C37.4888 44.6641 37.7661 44.7057 37.9825 44.3979C38.1749 44.1243 38.138 43.7406 37.9328 43.5963C37.6249 43.38 37.7553 43.2672 38.2416 43.3024C38.9368 43.3312 38.8176 42.9919 38.0614 42.6136C37.9006 42.5517 38.1271 42.3021 38.5386 42.0803C39.0083 41.8483 39.5576 41.2123 39.8156 40.6271C40.1458 39.9394 40.3825 39.748 40.5257 40.0532C40.6246 40.276 40.8197 40.362 40.9399 40.191C41.0841 39.9858 40.9788 39.554 40.7431 39.235C40.4529 38.7755 40.5389 38.5804 41.0049 38.4992C41.4709 38.4179 41.605 38.1544 41.4692 37.5479C41.3879 37.082 41.5535 36.4829 41.7699 36.1751C42.1888 35.6519 42.223 35.6759 41.9751 36.3193C41.7133 37.0552 42.3104 38.2414 42.671 37.7284C42.8153 37.5232 42.7746 37.2902 42.6036 37.17C42.159 36.8574 44.1177 33.6349 44.5864 33.9133C44.7574 34.0335 44.7168 33.8005 44.4607 33.365C44.2047 32.9295 44.1983 32.7206 44.4377 32.8889C44.667 32.999 45.0405 32.9038 45.2569 32.596C45.4733 32.2882 45.3744 32.0653 45.0388 32.0338C44.6792 32.0365 44.6931 31.9441 45.0805 31.7565C45.5261 31.5587 45.6832 31.7714 45.7875 32.7135C45.817 33.3986 45.9223 33.8303 46.0185 33.6935C46.1147 33.5567 46.2366 34.2557 46.351 35.256C46.4801 37.5442 46.6212 38.87 47.1282 42.2926C47.3581 43.783 47.5288 45.7938 47.5508 46.7803C47.5728 47.7667 47.6355 48.9862 47.6927 49.4863C47.774 49.9523 47.9521 51.6618 48.0997 53.1965C48.2575 54.7895 48.5596 56.1772 48.8332 56.3695C49.0726 56.5378 49.031 56.8152 48.712 57.0509C48.3588 57.2625 48.3513 57.5639 48.6592 57.7803C48.9328 57.9727 49.0723 58.4285 49.0168 58.7983C48.927 59.144 49.1007 59.6239 49.3744 59.8162C49.6822 60.0326 49.757 60.2896 49.4759 60.3987C48.8657 60.6852 50.0059 69.459 50.7584 69.9879C50.8952 70.0841 50.8877 70.3855 50.6954 70.6591C50.5271 70.8985 50.6683 72.2243 51.0868 73.5917C51.4712 74.9351 51.7631 76.2646 51.7556 76.566C51.7722 76.8332 51.885 76.9636 51.9812 76.8268C52.0773 76.69 52.3222 77.5775 52.4532 78.8451C52.7506 80.8938 53.2856 82.241 53.3736 81.0252C53.4153 80.7479 53.5761 80.8099 53.7878 81.1631C54.102 81.5884 54.0401 81.7492 53.6121 81.7039C53.2182 81.6825 53.2477 82.3676 53.7346 83.7831C54.4055 85.7367 54.5829 86.0659 55.2707 86.3961C55.4075 86.4923 55.4925 86.8075 55.4712 87.2014C55.4359 87.6877 55.631 87.7737 56.4261 87.5149C57.163 87.2664 57.4163 87.3422 57.5521 87.9488C57.6815 88.3463 57.9514 88.6894 58.1843 88.6487C58.4173 88.6081 58.3212 88.7449 57.9439 88.9908C57.1654 89.5167 57.1312 89.4926 56.9622 88.3517C56.8467 87.8617 56.7035 87.5566 56.5832 87.7276C56.2947 88.1381 56.289 89.3094 56.5867 89.4675C57.4112 89.8939 57.8179 90.3331 57.5128 90.4764C57.3482 90.5651 57.5257 90.8942 57.9361 91.1827C58.3466 91.4713 58.867 91.5305 59.0353 91.2911C59.1796 91.0859 59.139 90.8529 58.8958 90.8353C58.6869 90.8417 58.6222 90.6429 58.7424 90.4719C58.8867 90.2667 59.2463 90.264 59.5199 90.4564C59.8278 90.6728 59.8166 91.1248 59.5281 91.5353C59.1434 92.0825 59.2081 92.2813 59.8071 92.4469C60.2111 92.5265 61.2003 92.8641 61.9703 93.1499C62.6821 93.4459 63.8396 93.5441 64.4942 93.3399C65.1488 93.1357 65.5667 93.1228 65.4465 93.2939C65.3503 93.4307 65.8024 93.4418 66.5254 93.2857C67.2142 93.1056 67.5396 93.0788 67.2104 93.2563C66.823 93.4439 66.8193 93.5946 67.179 93.5918C67.5146 93.6233 67.902 93.4357 68.0703 93.1963C68.2386 92.9569 68.9033 92.811 69.5505 92.9081C70.1976 93.0053 70.6978 92.9481 70.6774 92.8316C70.6571 92.7151 71.8359 92.4195 73.2338 92.1757C74.6558 91.8977 75.7181 91.6223 75.6155 91.5502C75.4787 91.454 76.5132 91.3636 77.9416 91.2946C79.3117 91.2356 80.754 91.0741 81.1174 90.9207C82.4784 90.2932 113.002 85.3295 120.481 84.5052C122.539 84.2662 124.715 84.0068 125.297 83.9052C125.856 83.8378 126.39 83.8046 126.493 83.8767C126.595 83.9489 127.513 83.8788 128.538 83.7301C129.562 83.5815 130.878 83.382 131.519 83.2703C132.169 83.2168 132.865 83.2455 133.104 83.4138C133.343 83.5821 133.611 83.5655 133.731 83.3945C133.851 83.2235 134.351 83.1663 134.8 83.3282C135.248 83.49 135.82 83.3302 136.013 83.0566C136.229 82.7488 136.428 82.6841 136.492 82.8829C136.564 83.2906 139.115 83.2957 141.445 82.8893C142.202 82.7572 142.823 82.529 142.792 82.3542C142.738 82.2137 142.967 82.3238 143.285 82.5984C143.579 82.9073 144.212 83.0969 144.644 82.9916C145.726 82.8328 146.01 83.0834 146.24 84.5737ZM155.845 94.3919C155.646 94.4566 155.276 94.4011 155.095 94.2226C154.787 94.0062 154.836 93.9378 155.216 94.0516C155.527 94.1173 155.836 93.8234 155.95 93.4434C156.149 92.8684 156.184 92.8924 156.169 93.4952C156.182 93.9131 156.01 94.3032 155.845 94.3919ZM153.555 98.8125C153.435 98.9835 153.178 99.0584 152.973 98.9141C152.802 98.7939 152.751 98.5027 152.871 98.3317C153.015 98.1264 153.283 98.1098 153.454 98.2301C153.659 98.3743 153.699 98.6073 153.555 98.8125ZM42.136 31.2197C42.0158 31.3908 41.8271 31.5137 41.7587 31.4656C41.6561 31.3935 41.6053 31.1022 41.6229 30.8591C41.6646 30.5817 41.8292 30.493 42.0002 30.6132C42.2054 30.7575 42.2802 31.0145 42.136 31.2197ZM49.2813 37.7758C49.1611 37.9468 48.8698 37.9976 48.6646 37.8534C48.4936 37.7332 48.5454 37.5141 48.7682 37.4152C49.0151 37.2821 49.2823 37.2655 49.3849 37.3376C49.4533 37.3857 49.4255 37.5706 49.2813 37.7758ZM27.229 52.4253C27.1088 52.5964 26.8453 52.4623 26.5754 52.1192C26.2954 51.7179 26.1687 51.68 26.1474 52.0738C26.1261 52.4677 25.9754 52.464 25.7295 52.0867C25.4938 51.7677 25.5253 51.4321 25.7481 51.3332C26.2761 51.0911 27.5175 52.0149 27.229 52.4253ZM56.6266 77.9971C56.4519 78.0276 56.12 77.8454 55.9527 77.5745C55.7512 77.2796 55.926 77.2491 56.3022 77.5135C56.7025 77.7438 56.8356 77.9907 56.6266 77.9971ZM55.5809 78.5396C54.9947 78.7919 54.5982 78.4109 54.7777 77.7194C54.8813 77.2812 55.0662 77.309 55.4729 77.7482C55.7428 78.0913 55.8037 78.4407 55.5809 78.5396ZM57.799 82.6541C57.4116 82.8417 56.2219 81.6988 56.1546 81.1404C56.1481 80.9314 56.3191 81.0517 56.589 81.3947C56.8691 81.796 57.249 81.9098 57.6263 81.6639C58.0516 81.3497 58.2125 81.4116 58.1773 81.8979C58.1458 82.2335 57.9978 82.5894 57.799 82.6541ZM67.8302 91.6477C68.2673 92.2617 68.161 92.3402 66.863 92.2966C65.589 92.2187 65.5308 92.2288 66.3259 91.9701C67.1312 91.7696 67.2274 91.6328 66.9751 91.0466C66.6341 90.2959 67.1712 90.6223 67.8302 91.6477ZM58.1867 85.7374C58.1072 86.1414 57.8667 86.4835 57.692 86.5139C57.5172 86.5444 57.521 86.3937 57.6893 86.1543C57.8816 85.8807 57.7143 85.6098 57.3445 85.5542C56.7113 85.3646 56.7807 84.9024 57.4796 84.7804C58.1203 84.6687 58.3903 85.0117 58.1867 85.7374ZM63.2284 89.1794C63.1563 89.282 62.8992 89.3568 62.6219 89.3152C62.3787 89.2975 62.2558 89.1089 62.376 88.9379C62.5203 88.7327 62.8115 88.6819 62.9825 88.8021C63.1878 88.9464 63.2765 89.111 63.2284 89.1794ZM60.012 89.3202C59.6422 89.2647 59.3686 89.0724 59.376 88.771C59.4177 88.4936 59.3086 88.2125 59.1478 88.1506C58.9869 88.0886 58.7614 87.8279 58.57 87.5912C58.314 87.1557 59.416 87.6237 59.9937 88.1831C60.1305 88.2793 60.3533 88.1804 60.5216 87.941C60.6659 87.7358 60.7888 87.9244 60.7296 88.4449C60.7008 89.1401 60.5223 89.3212 60.012 89.3202ZM64.2707 92.0585C63.9822 92.4689 63.8454 92.3727 63.4905 91.7144C63.2585 91.2447 63.2355 90.7686 63.4583 90.6697C64.0445 90.4174 64.6554 91.5112 64.2707 92.0585ZM56.2064 86.0828C56.0861 86.2538 55.8975 86.3768 55.8291 86.3287C55.7265 86.2566 55.6757 85.9653 55.6933 85.7222C55.735 85.4448 55.8996 85.3561 56.0706 85.4763C56.2758 85.6206 56.3506 85.8776 56.2064 86.0828ZM61.3015 90.1756C61.013 90.5861 60.78 90.6267 60.7292 90.3355C60.6784 90.0442 60.8606 89.7124 61.1075 89.5793C61.8102 89.3067 61.8545 89.389 61.3015 90.1756ZM63.0096 92.3985C62.8894 92.5695 62.5982 92.6203 62.393 92.476C62.2219 92.3558 62.2738 92.1367 62.4966 92.0378C62.7435 91.9047 63.0106 91.8881 63.1132 91.9603C63.1817 92.0084 63.1539 92.1933 63.0096 92.3985ZM61.6469 92.156C61.5988 92.2244 61.1948 92.1448 60.7465 91.983C60.2981 91.8211 60.1068 91.5844 60.3638 91.5095C60.7512 91.3219 61.8393 91.8824 61.6469 92.156ZM123.895 142.967C123.6 143.169 123.57 142.994 123.834 142.618C124.065 142.218 124.311 142.085 124.318 142.293C124.348 142.468 124.166 142.8 123.895 142.967ZM108.838 143.523C108.669 143.762 108.348 143.639 107.989 143.131C107.145 142.078 107.159 141.985 108.057 141.799C108.697 141.687 108.893 141.773 108.97 142.39C109.041 142.797 108.982 143.318 108.838 143.523ZM94.4137 132.055C94.3415 132.157 94.0845 132.232 93.8072 132.19C93.564 132.173 93.4411 131.984 93.5613 131.813C93.7056 131.608 93.9968 131.557 94.1678 131.677C94.373 131.822 94.4617 131.986 94.4137 132.055ZM109.503 144.757C109.567 145.467 109.508 145.477 109.15 144.969C108.914 144.65 108.843 144.242 108.963 144.071C109.276 143.627 109.433 143.839 109.503 144.757ZM15.3539 81.8948C14.9627 82.2331 14.6234 82.3523 14.5929 82.1775C14.5662 81.8521 15.6295 81.0665 15.8689 81.2348C15.9373 81.2829 15.721 81.5907 15.3539 81.8948ZM25.278 89.5867C24.981 90.8088 24.7758 90.6646 24.7308 89.202C24.7291 88.332 24.829 88.0445 25.0887 88.3293C25.28 88.566 25.3474 89.1244 25.278 89.5867ZM68.8955 120.811C68.7133 121.143 68.4942 121.091 68.2483 120.714C68.0025 120.336 68.0062 120.186 68.3519 120.275C68.6394 120.375 68.8761 120.184 68.8836 119.883C68.9493 119.571 69.0075 119.561 69.0482 119.794C69.123 120.051 69.0536 120.513 68.8955 120.811ZM76.0624 125.082C75.2202 124.899 75.1962 124.933 75.9486 125.462C76.335 125.785 76.5569 126.196 76.4126 126.402C76.2443 126.641 75.8542 126.469 75.3892 126.04C75.0167 125.625 74.4999 125.415 74.2531 125.548C74.0404 125.705 74.058 125.462 74.3465 125.052C74.8172 124.309 75.4681 124.256 76.4498 124.895C76.7577 125.111 76.6273 125.224 76.0624 125.082ZM55.1494 112.885C55.7234 113.595 56.4758 114.124 57.0749 114.29C57.9513 114.497 58.1426 114.734 58.0315 115.473C57.9723 115.994 57.8585 116.374 57.8003 116.384C57.7319 116.336 57.2734 116.116 56.7224 115.882C55.8054 115.442 55.8294 115.407 56.7816 115.361C57.3502 115.352 57.6553 115.209 57.4501 115.065C57.2107 114.896 56.6661 114.871 56.166 114.929C55.7 115.01 55.0871 114.937 54.8236 114.803C54.5842 114.634 54.5906 114.843 54.8365 115.22C55.1166 115.622 55.1091 115.923 54.8419 115.94C54.5646 115.898 54.2706 115.589 54.1172 115.226C53.8649 114.64 53.9713 114.561 54.7728 114.511C55.8758 114.469 55.7945 114.003 54.4911 113.24C53.9882 112.938 53.527 112.358 53.4799 111.916C53.3174 110.984 53.8202 111.286 55.1494 112.885ZM15.2783 85.419C15.1581 85.5901 14.9695 85.713 14.9011 85.6649C14.7985 85.5928 14.7477 85.3015 14.7653 85.0584C14.8069 84.781 14.9715 84.6923 15.1425 84.8125C15.3477 84.9568 15.4226 85.2138 15.2783 85.419ZM30.6214 96.307C30.3569 96.6832 29.9705 96.3605 29.6434 95.5173C29.4013 94.9894 29.5178 94.969 30.0854 95.4702C30.4958 95.7587 30.7176 96.1702 30.6214 96.307ZM42.1724 105.756C42.0078 105.844 41.3062 105.607 40.7007 105.232C40.0028 104.844 39.7328 104.501 40.0379 104.358C40.7647 104.051 40.1213 103.803 38.8778 103.9C37.9939 103.994 37.9255 103.946 38.4294 103.738C38.859 103.563 38.802 103.523 38.2584 103.618C37.1517 103.811 35.1985 102.591 36.2025 102.326C36.6001 102.196 36.8609 101.971 36.8202 101.738C36.7898 101.563 36.6391 101.559 36.4948 101.764C36.3265 102.004 35.9668 102.007 35.6932 101.814C35.4196 101.622 35.06 101.625 34.9157 101.83C34.7234 102.103 34.5865 102.007 34.4369 101.493C34.3214 101.003 34.1162 100.859 33.8693 100.992C33.6326 101.183 33.188 100.871 32.5253 99.9961C31.4115 98.5999 30.1487 98.07 30.0681 98.9843C30.0366 99.3199 29.8794 99.1072 29.7436 98.5007C29.5228 97.5789 29.2391 97.3283 28.4995 97.2173C27.2154 97.0811 27.1026 96.9507 27.6316 96.1983C28.2327 95.3432 29.0813 95.7354 30.8791 97.6125C32.0891 98.8719 32.445 99.0198 33.2743 98.7852C33.8226 98.6595 34.0315 98.6531 33.7504 98.7622C33.4795 98.9294 33.4036 99.1828 33.5747 99.303C33.7799 99.4472 34.0952 99.3622 34.2635 99.1228C34.4558 98.8492 34.5483 98.863 34.5612 99.2809C34.5398 99.6748 35.1314 100.142 36.3119 100.716C37.2733 101.239 38.1284 101.84 38.1792 102.131C38.2299 102.422 38.767 102.749 39.4484 102.87C40.383 103.067 40.6909 103.283 40.8507 103.856C41.0105 104.428 41.2157 104.572 41.8564 104.46C42.5452 104.28 42.6479 104.352 42.5988 104.931C42.5432 105.301 42.3712 105.691 42.1724 105.756ZM43.6665 105.375C43.5462 105.546 43.3576 105.669 43.2892 105.621C43.1866 105.549 43.1358 105.258 43.1534 105.015C43.1951 104.737 43.3597 104.648 43.5307 104.769C43.7359 104.913 43.8107 105.17 43.6665 105.375ZM44.5215 105.976C44.2987 106.075 44.2229 106.328 44.3939 106.449C44.5751 106.627 44.893 106.902 45.1084 107.104C45.3136 107.248 45.3025 107.701 45.1304 108.091C44.7901 108.72 44.7559 108.696 44.5453 107.833C44.3993 107.168 44.1738 106.907 43.7078 106.988C43.2418 107.07 43.0949 106.915 43.1402 106.487C43.1274 106.069 43.2438 106.049 43.4074 106.471C43.6052 106.916 43.7217 106.896 43.8152 106.399C43.9289 106.02 44.1694 105.678 44.3441 105.647C44.9266 105.545 45.0254 105.768 44.5215 105.976ZM52.9066 112.586C52.6902 112.894 52.2621 112.849 51.91 112.55C51.5578 112.251 51.3461 111.898 51.4663 111.727C51.5866 111.556 51.8741 111.656 52.0515 111.985C52.253 112.28 52.5405 112.38 52.6607 112.209C52.805 112.004 52.9696 111.915 53.0722 111.987C53.1748 112.059 53.0989 112.313 52.9066 112.586ZM26.2553 94.1577C26.2377 94.4008 26.0491 94.5237 25.8781 94.4035C25.6728 94.2593 25.6221 93.968 25.7423 93.797C25.8865 93.5918 26.0511 93.5031 26.1195 93.5512C26.2221 93.6233 26.297 93.8803 26.2553 94.1577ZM16.2912 87.6131C16.171 87.7841 15.7873 87.821 15.4758 87.7553C15.0376 87.6516 15.0071 87.4769 15.3843 87.2311C15.9502 86.8623 16.6278 87.1342 16.2912 87.6131ZM44.105 108.75C44.0975 109.051 43.6251 108.923 43.0095 108.491C42.3938 108.058 42.1138 107.657 42.3949 107.548C42.6417 107.414 43.1483 107.566 43.4904 107.807C43.8324 108.047 44.1466 108.472 44.105 108.75ZM21.4555 93.1342C21.2807 93.1647 20.9488 92.9826 20.7815 92.7117C20.5801 92.4167 20.7548 92.3862 21.131 92.6507C21.5313 92.8809 21.6644 93.1278 21.4555 93.1342Z" fill="#383838"/>
<path fill-rule="evenodd" clip-rule="evenodd" d="M81.084 39.0619C80.9398 39.2672 80.9943 39.4077 81.169 39.3772C81.378 39.3708 81.7302 39.6694 81.928 40.1151C82.2727 40.7152 82.4335 40.7771 82.7221 40.3667C82.9385 40.0589 82.7749 39.6373 82.2277 39.2526C81.7488 38.916 81.2524 38.8225 81.084 39.0619Z" fill="#383838"/>
<path fill-rule="evenodd" clip-rule="evenodd" d="M34.7144 48.3198C34.4499 48.6961 34.4184 49.0317 34.7198 49.0391C34.963 49.0567 35.2478 48.797 35.3033 48.4272C35.5688 47.5406 35.3155 47.4648 34.7144 48.3198Z" fill="#383838"/>
<path fill-rule="evenodd" clip-rule="evenodd" d="M146.4 111.245C146.135 111.621 146.166 111.796 146.461 111.594C146.731 111.427 146.914 111.095 146.883 110.92C146.877 110.711 146.63 110.844 146.4 111.245Z" fill="#383838"/>
<path fill-rule="evenodd" clip-rule="evenodd" d="M129.295 138.776C129.072 138.875 129.02 139.094 129.191 139.214C129.397 139.358 129.688 139.307 129.808 139.136C129.952 138.931 129.98 138.746 129.912 138.698C129.809 138.626 129.542 138.643 129.295 138.776Z" fill="#383838"/>
<path fill-rule="evenodd" clip-rule="evenodd" d="M119.842 147.206C119.523 147.442 119.481 147.719 119.789 147.936C120.063 148.128 120.471 148.057 120.663 147.783C120.855 147.51 120.887 147.174 120.716 147.054C120.545 146.934 120.171 147.029 119.842 147.206Z" fill="#383838"/>
<path fill-rule="evenodd" clip-rule="evenodd" d="M111.928 148.287C111.633 148.488 111.533 148.776 111.704 148.896C112.149 149.208 112.89 148.809 112.658 148.339C112.559 148.117 112.257 148.109 111.928 148.287Z" fill="#383838"/>
<path fill-rule="evenodd" clip-rule="evenodd" d="M98.5925 140.649C98.4482 140.855 98.4167 141.19 98.5498 141.437C98.6829 141.684 98.8133 141.571 98.903 141.225C99.0964 140.441 98.9291 140.171 98.5925 140.649Z" fill="#383838"/>
<path fill-rule="evenodd" clip-rule="evenodd" d="M110.261 149.568C109.311 149.973 109.346 149.997 110.312 149.859C110.894 149.757 111.34 149.56 111.285 149.419C111.255 149.244 110.789 149.326 110.261 149.568Z" fill="#383838"/>
<path fill-rule="evenodd" clip-rule="evenodd" d="M92.0734 137.855C91.7544 138.091 91.3948 138.094 91.3301 137.895C91.2313 137.672 90.9438 137.572 90.6969 137.705C90.3335 137.859 90.1523 137.68 90.0027 137.166C89.8733 136.769 89.6376 136.45 89.4046 136.49C89.2299 136.521 89.2262 136.672 89.4998 136.864C89.8418 137.104 89.7697 137.207 89.1391 137.377C88.5668 137.537 88.3403 137.786 88.4114 138.194C88.4927 138.66 88.6877 138.746 88.9928 138.603C89.2739 138.494 89.2915 138.251 89.0761 138.048C88.8608 137.846 89.1039 137.863 89.6789 138.063C90.278 138.229 90.9038 138.72 91.1357 139.189C91.4361 139.707 91.5387 139.779 91.5943 139.409C91.6017 139.108 91.7903 138.985 91.9614 139.105C92.4402 139.442 93.0894 138.519 92.8371 137.932C92.704 137.685 92.3684 137.654 92.0734 137.855Z" fill="#383838"/>
<path fill-rule="evenodd" clip-rule="evenodd" d="M93.9038 138.887C93.3556 139.012 93.2963 139.533 93.8093 139.893C94.1514 140.134 94.1439 140.435 93.7907 140.647C93.4717 140.883 93.4301 141.16 93.7037 141.352C93.9773 141.545 94.4673 141.429 94.8104 141.159C95.2496 140.752 95.6194 140.808 96.0362 141.306C96.4429 141.745 96.7304 141.845 96.9709 141.503C97.2113 141.161 96.8388 140.745 95.7101 139.952C94.8551 139.351 94.0545 138.89 93.9038 138.887Z" fill="#383838"/>
<path fill-rule="evenodd" clip-rule="evenodd" d="M97.2407 141.846C97.1205 142.017 97.2434 142.205 97.4865 142.223C97.7639 142.264 98.0209 142.19 98.093 142.087C98.1411 142.019 98.0524 141.854 97.8472 141.71C97.6762 141.59 97.3849 141.64 97.2407 141.846Z" fill="#383838"/>
<path fill-rule="evenodd" clip-rule="evenodd" d="M98.3517 142.882C97.9985 143.094 97.758 143.436 97.7885 143.611C97.7848 143.761 98.1001 143.676 98.4533 143.465C98.8065 143.253 99.0469 142.911 99.0164 142.736C99.0201 142.586 98.7049 142.67 98.3517 142.882Z" fill="#383838"/>
<path fill-rule="evenodd" clip-rule="evenodd" d="M100.685 144.216C100.082 144.201 100.103 144.317 100.718 144.75C101.163 145.063 101.499 145.094 101.54 144.817C101.589 144.238 101.624 144.262 100.685 144.216Z" fill="#383838"/>
<path fill-rule="evenodd" clip-rule="evenodd" d="M82.9501 133.895C82.2622 134.195 82.3214 134.305 83.1276 134.224C84.3609 134.069 84.6077 133.936 84.1973 133.647C84.0605 133.551 83.5122 133.677 82.9501 133.895Z" fill="#383838"/>
<path fill-rule="evenodd" clip-rule="evenodd" d="M96.0036 142.151C95.7872 142.459 96.6931 143.352 97.0564 143.198C97.3375 143.089 97.1943 142.784 96.818 142.519C96.4076 142.231 96.0517 142.083 96.0036 142.151Z" fill="#383838"/>
<path fill-rule="evenodd" clip-rule="evenodd" d="M76.4859 129.351C75.6704 129.493 75.1692 130.061 75.8645 130.089C76.1418 130.131 76.2306 130.296 76.0623 130.535C75.8218 130.877 75.9244 130.949 76.3904 130.868C76.7981 130.797 77.0728 130.479 77.108 129.993C77.1811 129.38 77.0101 129.259 76.4859 129.351Z" fill="#383838"/>
<path fill-rule="evenodd" clip-rule="evenodd" d="M86.2132 136.087C85.9663 136.22 86.0791 136.35 86.4248 136.44C87.2088 136.633 87.4797 136.466 87.0009 136.129C86.7956 135.985 86.4601 135.954 86.2132 136.087Z" fill="#383838"/>
<path fill-rule="evenodd" clip-rule="evenodd" d="M92.0277 140.174C91.8049 140.273 91.7531 140.492 91.9241 140.612C92.1293 140.757 92.4206 140.706 92.5408 140.535C92.685 140.33 92.7128 140.145 92.6444 140.097C92.5418 140.024 92.2746 140.041 92.0277 140.174Z" fill="#383838"/>
<path fill-rule="evenodd" clip-rule="evenodd" d="M77.7642 130.658C77.2604 130.866 76.9735 132.147 77.3839 132.435C77.5549 132.555 77.7195 132.467 77.7372 132.223C77.7798 131.436 78.9362 132.044 79.4889 133.148C79.7994 133.724 80.1821 134.198 80.3569 134.167C80.7886 134.062 79.9254 132.382 78.9068 131.359C78.4659 130.896 77.9288 130.57 77.7642 130.658Z" fill="#383838"/>
<path d="M82.6862 135.652C82.8751 135.784 83.1359 135.739 83.2687 135.55C83.4015 135.361 83.356 135.1 83.1671 134.967C82.9782 134.835 82.7174 134.88 82.5846 135.069C82.4519 135.258 82.4973 135.519 82.6862 135.652Z" fill="#383838"/>
<path fill-rule="evenodd" clip-rule="evenodd" d="M83.7818 135.911C83.559 136.01 83.5072 136.229 83.6782 136.349C83.8834 136.493 84.1746 136.442 84.2948 136.271C84.4391 136.066 84.4669 135.881 84.3985 135.833C84.2959 135.761 84.0287 135.778 83.7818 135.911Z" fill="#383838"/>
<path fill-rule="evenodd" clip-rule="evenodd" d="M78.1564 133.08C78.1388 133.324 78.3542 133.526 78.5973 133.544C79.2584 133.548 79.2621 133.398 78.6807 132.989C78.4071 132.797 78.1741 132.837 78.1564 133.08Z" fill="#383838"/>
<path fill-rule="evenodd" clip-rule="evenodd" d="M71.5332 129.344C71.3104 129.443 71.2586 129.662 71.4296 129.783C71.6348 129.927 71.9261 129.876 72.0463 129.705C72.1905 129.5 72.2183 129.315 72.1499 129.267C72.0473 129.195 71.7801 129.211 71.5332 129.344Z" fill="#383838"/>
<path fill-rule="evenodd" clip-rule="evenodd" d="M68.8987 128.003C68.6759 128.102 68.6241 128.321 68.7951 128.442C69.0003 128.586 69.2915 128.535 69.4117 128.364C69.556 128.159 69.5838 127.974 69.5154 127.926C69.4127 127.854 69.1456 127.87 68.8987 128.003Z" fill="#383838"/>
<path fill-rule="evenodd" clip-rule="evenodd" d="M62.4358 124.329C62.6031 124.6 62.935 124.782 63.1097 124.752C63.3186 124.745 63.1856 124.498 62.7853 124.268C62.4091 124.004 62.2343 124.034 62.4358 124.329Z" fill="#383838"/>
</svg>

